<?xml version="1.0" encoding="UTF-8" standalone="no"?>
<svg
   xmlns:dc="http://purl.org/dc/elements/1.1/"
   xmlns:cc="http://creativecommons.org/ns#"
   xmlns:rdf="http://www.w3.org/1999/02/22-rdf-syntax-ns#"
   xmlns:svg="http://www.w3.org/2000/svg"
   xmlns="http://www.w3.org/2000/svg"
   xmlns:xlink="http://www.w3.org/1999/xlink"
   xmlns:sodipodi="http://sodipodi.sourceforge.net/DTD/sodipodi-0.dtd"
   xmlns:inkscape="http://www.inkscape.org/namespaces/inkscape"
   id="Layer_1"
   data-name="Layer 1"
   viewBox="0 0 150.03 119.12"
   version="1.1"
   sodipodi:docname="analytics_process.svg"
   inkscape:version="1.0.1 (3bc2e813f5, 2020-09-07)">
  <metadata
     id="metadata190">
    <rdf:RDF>
      <cc:Work
         rdf:about="">
        <dc:format>image/svg+xml</dc:format>
        <dc:type
           rdf:resource="http://purl.org/dc/dcmitype/StillImage" />
      </cc:Work>
    </rdf:RDF>
  </metadata>
  <sodipodi:namedview
     pagecolor="#ffffff"
     bordercolor="#666666"
     borderopacity="1"
     objecttolerance="10"
     gridtolerance="10"
     guidetolerance="10"
     inkscape:pageopacity="0"
     inkscape:pageshadow="2"
     inkscape:window-width="2575"
     inkscape:window-height="1058"
     id="namedview188"
     showgrid="false"
     inkscape:zoom="2.9917882"
     inkscape:cx="0.78855109"
     inkscape:cy="35.562423"
     inkscape:window-x="26"
     inkscape:window-y="23"
     inkscape:window-maximized="0"
     inkscape:current-layer="Layer_1" />
  <defs
     id="defs32">
    <linearGradient
       id="linear-gradient"
       x1="56.17"
       y1="79.01"
       x2="50.54"
       y2="155.08"
       gradientUnits="userSpaceOnUse">
      <stop
         offset="0.01"
         id="stop2" />
      <stop
         offset="0.08"
         stop-opacity="0.69"
         id="stop4" />
      <stop
         offset="0.21"
         stop-opacity="0.32"
         id="stop6" />
      <stop
         offset="1"
         stop-opacity="0"
         id="stop8" />
    </linearGradient>
    <linearGradient
       id="linear-gradient-2"
       x1="125.04"
       y1="77.79"
       x2="119.4"
       y2="153.87"
       xlink:href="#linear-gradient"
       gradientTransform="matrix(0.64141187,0,0,0.61976623,44.332303,9.2439344)" />
    <linearGradient
       id="linear-gradient-3"
       x1="286.79"
       y1="1609.98"
       x2="360.63"
       y2="1606.71"
       gradientTransform="matrix(0.44111261,0.44993467,-0.46564886,0.42622644,695.35251,-760.62348)"
       xlink:href="#linear-gradient" />
    <linearGradient
       id="linear-gradient-4"
       x1="259.83"
       y1="-279.45"
       x2="309.16"
       y2="-186.08"
       gradientTransform="matrix(0.59009852,0,0,0.60737135,-59.3007,207.75653)"
       xlink:href="#linear-gradient" />
    <linearGradient
       id="linear-gradient-5"
       x1="269.67"
       y1="-284.65"
       x2="319"
       y2="-191.28"
       gradientTransform="matrix(0.59009852,0,0,0.60737135,-59.300846,207.75656)"
       xlink:href="#linear-gradient" />
    <linearGradient
       id="linear-gradient-6"
       x1="-35.22"
       y1="435.36"
       x2="-23.71"
       y2="461.71"
       gradientTransform="matrix(1,0.03,-0.03,1,123.18,-353.89)"
       xlink:href="#linear-gradient" />
    <linearGradient
       id="linear-gradient-7"
       x1="-1869.91"
       y1="1503.22"
       x2="-1889.07"
       y2="1519.55"
       gradientTransform="matrix(0.84, 0.54, -0.54, 0.84, 2482.37, -174.38)"
       gradientUnits="userSpaceOnUse">
      <stop
         offset="0.01"
         id="stop16" />
      <stop
         offset="0.13"
         stop-opacity="0.69"
         id="stop18" />
      <stop
         offset="0.25"
         stop-opacity="0.32"
         id="stop20" />
      <stop
         offset="1"
         stop-opacity="0"
         id="stop22" />
    </linearGradient>
    <linearGradient
       id="linear-gradient-8"
       x1="-295.91"
       y1="1517.49"
       x2="-267.05"
       y2="1490.81"
       gradientTransform="matrix(0.53878597,0.33467376,-0.34636241,0.52060363,774.67592,-626.33872)"
       xlink:href="#linear-gradient-7" />
    <linearGradient
       id="linear-gradient-9"
       x1="117.9"
       y1="43.17"
       x2="118.4"
       y2="27.4"
       gradientUnits="userSpaceOnUse">
      <stop
         offset="0.01"
         stop-color="#fff"
         id="stop26" />
      <stop
         offset="1"
         stop-color="#fff"
         stop-opacity="0"
         id="stop28" />
    </linearGradient>
    <linearGradient
       id="linear-gradient-10"
       x1="121.6"
       y1="38.52"
       x2="114.06"
       y2="31.86"
       xlink:href="#linear-gradient-9"
       gradientTransform="matrix(0.64141187,0,0,0.61976623,44.332303,9.2439344)" />
    <linearGradient
       inkscape:collect="always"
       xlink:href="#linear-gradient"
       id="linearGradient1015"
       gradientUnits="userSpaceOnUse"
       x1="56.17"
       y1="79.01"
       x2="50.54"
       y2="155.08"
       gradientTransform="matrix(0.64141187,0,0,0.61976623,44.332303,9.2439344)" />
    <linearGradient
       inkscape:collect="always"
       xlink:href="#linear-gradient-7"
       id="linearGradient1017"
       gradientUnits="userSpaceOnUse"
       gradientTransform="matrix(0.53878597,0.33467376,-0.34636241,0.52060363,1636.5539,-98.830897)"
       x1="-1869.91"
       y1="1503.22"
       x2="-1889.07"
       y2="1519.55" />
    <linearGradient
       inkscape:collect="always"
       xlink:href="#linear-gradient-9"
       id="linearGradient1019"
       gradientUnits="userSpaceOnUse"
       x1="117.9"
       y1="43.17"
       x2="118.4"
       y2="27.4"
       gradientTransform="matrix(0.64141187,0,0,0.61976623,44.332303,9.2439344)" />
  </defs>
  <title
     id="title34">14</title>
  <path
     d="m 69.712971,90.433317 a 20.730432,20.030844 0 0 1 -9.544209,-4.090464 c -3.264787,-2.479065 -6.811794,-5.819605 -6.702754,-9.965841 0.115454,-4.40034 1.815195,-8.633344 3.694532,-12.59365 2.482265,-5.348582 5.945888,-10.988455 5.02867,-16.944408 -0.904391,-5.862989 0.314292,-13.083265 3.559836,-18.128162 5.131295,-7.945403 14.11106,-9.872877 23.090827,-10.058806 5.93306,-0.117756 12.039297,0.223115 17.446397,2.584425 5.68291,2.479065 10.23052,7.059137 16.0353,9.191133 3.84847,1.400672 8.05613,1.679566 11.82122,3.253772 4.74003,1.98945 8.39608,5.931163 10.7693,10.36869 2.37323,4.437526 3.56625,9.364667 4.45781,14.254623 1.50091,8.273879 -2.06534,18.592987 -7.20305,25.367032 -3.44438,4.524296 -9.17861,9.736526 -15.09242,8.620956 -29.979587,-5.528323 -24.2133,3.30955 -57.361459,-1.8593 z"
     fill="#178592"
     opacity="0.18"
     style="isolation:isolate;stroke-width:0.630496"
     id="path36" />
  <path
     d="m 141.25604,47.371952 a 3.0531205,2.9500873 0 0 1 -3.0467,2.950088 h -7.84447 a 3.0531207,2.9500875 0 0 1 0,-5.900175 h 1.12889 a 1.6291862,1.5742062 0 0 1 0,-0.241708 2.8033828,2.7087774 0 1 1 5.60594,-0.09297 v 0.09297 c 0,0.08057 0,0.161139 0,0.241708 h 1.12246 a 3.0531205,2.9500873 0 0 1 3.05312,2.950087 z"
     fill="#178592"
     opacity="0.31"
     style="isolation:isolate;stroke-width:0.630496"
     id="path38" />
  <path
     d="m 140.30675,47.093058 a 3.0531205,2.9500873 0 0 1 -3.0467,2.950087 h -7.83806 a 3.0531207,2.9500875 0 1 1 0,-5.900175 h 1.12248 c 0,-0.08057 0,-0.161139 0,-0.23551 a 2.809384,2.7145761 0 1 1 5.61235,0 v 0 c 0,0.08057 0,0.161138 0,0.241708 h 1.12247 a 3.0467064,2.9438896 0 0 1 3.02746,2.94389 z"
     fill="#ffffff"
     id="path40"
     style="stroke-width:0.630496" />
  <g
     id="G8KHDO"
     transform="matrix(0.64141187,0,0,0.61976623,53.466008,18.633393)">
    <path
       d="m 36.46,72.28 a 1.36,1.36 0 0 1 0.4,-1 5.06,5.06 0 0 0 1.26,-2.2 2.61,2.61 0 0 0 -1.12,-2.82 5,5 0 0 0 -1.83,-0.89 1.43,1.43 0 0 1 -1,-1.56 c 0.05,-0.44 0.1,-0.88 0.14,-1.32 a 1.51,1.51 0 0 1 1.61,-1.38 4.89,4.89 0 0 0 1.84,-0.42 2.7,2.7 0 0 0 1.6,-3.39 13.29,13.29 0 0 0 -0.63,-1.65 1.48,1.48 0 0 1 0.45,-1.8 c 0.33,-0.27 0.68,-0.5 1,-0.78 a 1.58,1.58 0 0 1 2,0.06 5.31,5.31 0 0 0 1.66,1.11 2.72,2.72 0 0 0 3.35,-0.89 6.4,6.4 0 0 0 0.94,-1.93 1.44,1.44 0 0 1 1.61,-1 c 0.44,0.07 0.87,0.13 1.31,0.18 a 1.41,1.41 0 0 1 1.25,1.4 5.57,5.57 0 0 0 0.64,2.39 2.77,2.77 0 0 0 2.87,1.29 6.66,6.66 0 0 0 1.8,-0.64 1.5,1.5 0 0 1 2,0.5 c 0.25,0.38 0.58,0.71 0.83,1.09 a 1.38,1.38 0 0 1 -0.15,1.77 5.5,5.5 0 0 0 -1.14,1.76 2.71,2.71 0 0 0 1.3,3.52 8.13,8.13 0 0 0 1.51,0.66 1.44,1.44 0 0 1 1,1.43 c 0,0.53 -0.1,1.06 -0.18,1.58 a 1.4,1.4 0 0 1 -1.42,1.23 5.21,5.21 0 0 0 -2.23,0.55 2.63,2.63 0 0 0 -1.42,2.87 5.75,5.75 0 0 0 0.63,1.9 1.45,1.45 0 0 1 -0.46,2 l -0.9,0.7 a 1.45,1.45 0 0 1 -2,-0.07 5.45,5.45 0 0 0 -1.85,-1.14 2.68,2.68 0 0 0 -3.19,1 6.44,6.44 0 0 0 -0.94,1.93 1.4,1.4 0 0 1 -1.52,1 L 46,79.1 a 1.43,1.43 0 0 1 -1.14,-1.3 5.74,5.74 0 0 0 -0.54,-2.3 2.67,2.67 0 0 0 -3.1,-1.5 11.07,11.07 0 0 0 -1.77,0.66 1.49,1.49 0 0 1 -1.78,-0.34 12.69,12.69 0 0 1 -1,-1.23 4.5,4.5 0 0 1 -0.32,-0.82 z M 48.6,60.14 a 4.74,4.74 0 0 0 -4.77,4.73 4.8,4.8 0 0 0 4.62,4.74 4.74,4.74 0 1 0 0.15,-9.47 z"
       transform="translate(-14.24,-15.15)"
       fill="#178592"
       id="path42" />
    <path
       d="m 72.45,58.54 c 0,0.18 0,0.36 0,0.54 a 1,1 0 0 1 -0.81,1 l -1,0.25 a 1.1,1.1 0 0 1 -1.3,-0.6 6.1,6.1 0 0 0 -0.72,-1.14 2.05,2.05 0 0 0 -3,-0.35 9,9 0 0 0 -0.91,0.83 1.1,1.1 0 0 1 -1.39,0.24 L 62.51,58.83 A 1.14,1.14 0 0 1 62,57.28 5.2,5.2 0 0 0 62.28,55.88 2,2 0 0 0 60.5,53.73 c -0.5,-0.08 -1,0 -1.53,-0.1 a 1,1 0 0 1 -1,-0.93 5.74,5.74 0 0 0 -0.19,-0.82 1.13,1.13 0 0 1 0.62,-1.35 6.67,6.67 0 0 0 1.33,-0.91 1.93,1.93 0 0 0 0.27,-2.55 5.43,5.43 0 0 0 -0.84,-1 1.17,1.17 0 0 1 -0.26,-1.7 c 0.14,-0.23 0.27,-0.47 0.42,-0.7 a 1.1,1.1 0 0 1 1.4,-0.47 3.82,3.82 0 0 0 1.77,0.28 1.88,1.88 0 0 0 1.74,-1.48 6.36,6.36 0 0 0 0.16,-1.63 1.17,1.17 0 0 1 0.76,-1.17 c 0.37,-0.11 0.74,-0.19 1.11,-0.27 a 1,1 0 0 1 1.28,0.68 4,4 0 0 0 1.13,1.5 2.08,2.08 0 0 0 2.62,-0.11 6.37,6.37 0 0 0 0.8,-0.76 1.14,1.14 0 0 1 1.42,-0.24 l 0.93,0.55 a 1.07,1.07 0 0 1 0.44,1.34 4.19,4.19 0 0 0 -0.3,1.64 2,2 0 0 0 1.75,2 8.93,8.93 0 0 0 1.37,0.09 1.07,1.07 0 0 1 1.17,0.94 c 0.08,0.32 0.17,0.63 0.24,1 a 1,1 0 0 1 -0.63,1.2 4.24,4.24 0 0 0 -1.4,1 1.89,1.89 0 0 0 -0.32,2.24 6.81,6.81 0 0 0 1,1.26 1.12,1.12 0 0 1 0.24,1.54 l -0.45,0.75 a 1.1,1.1 0 0 1 -1.46,0.51 3.37,3.37 0 0 0 -2.09,-0.17 2,2 0 0 0 -1.4,1.55 9.87,9.87 0 0 0 -0.16,1.09 z m -4,-12.46 a 3.53,3.53 0 0 0 -3.57,3.54 3.57,3.57 0 1 0 7.13,0 3.52,3.52 0 0 0 -3.58,-3.54 z"
       transform="translate(-14.24,-15.15)"
       fill="#178592"
       id="path44" />
  </g>
  <path
     d="m 84.940089,76.730279 7.433964,0.557789 a 2.0910027,2.0204379 0 0 1 1.007016,0.241709 1.353379,1.3077068 0 0 1 0.429746,1.468846 2.9633228,2.86332 0 0 1 -1.013431,1.276718 c -2.700344,2.101008 -6.491088,2.206368 -9.980368,2.187775 l -16.420144,-0.08677 a 4.4898831,4.3383636 0 0 1 -1.866509,-0.2665 1.5393885,1.487439 0 0 1 -0.955703,-1.444055 1.9563062,1.890287 0 0 1 1.039087,-1.239532 13.142529,12.69901 0 0 1 4.73362,-1.468846 q 3.752259,-0.650755 7.517346,-1.239533"
     fill="url(#linear-gradient)"
     id="path47"
     style="fill:url(#linearGradient1015);stroke-width:0.630496" />
  <path
     d="m 129.11412,75.980362 7.43396,0.551591 a 2.0268615,1.9584613 0 0 1 1.00702,0.247907 1.353379,1.3077068 0 0 1 0.42974,1.462648 2.9440805,2.844727 0 0 1 -1.01984,1.276719 c -2.69393,2.131995 -6.48467,2.212565 -9.96754,2.187774 l -16.42656,-0.09296 a 4.5732666,4.4189332 0 0 1 -1.86651,-0.2665 1.5393885,1.487439 0 0 1 -0.97494,-1.450252 1.9242356,1.8592987 0 0 1 1.03909,-1.239533 13.257983,12.810568 0 0 1 4.75927,-1.456451 q 3.75226,-0.650754 7.51734,-1.239533"
     fill="url(#linear-gradient-2)"
     id="path49"
     style="fill:url(#linear-gradient-2);stroke-width:0.630496" />
  <path
     d="m 124.35484,77.418219 a 2.5656475,2.4790649 0 0 1 -0.21166,1.084591 1.8344379,1.7725314 0 0 1 -0.80818,0.725127 3.2070593,3.0988311 0 0 1 -2.37322,0.223115 0.34636241,0.33467376 0 0 1 -0.32712,-0.384254 1.7895391,1.7291478 0 0 1 0.6414,-1.078394 3.7907441,3.6628184 0 0 0 0.8595,-0.948242 c 0.35919,-0.706534 0.0898,-2.596821 1.47524,-2.293135 1.1353,0.235511 0.77612,1.865496 0.74404,2.671192 z"
     fill="#ce9e95"
     id="path51"
     style="stroke-width:0.630496" />
  <path
     d="m 124.54727,78.657752 c 0,0 0.19242,0.464824 -0.0449,0.737522 -0.23732,0.272697 -2.726,1.766333 -4.40009,0.563987 -1.67409,-1.202347 2.2706,-1.357288 2.2706,-1.357288 z"
     fill="#178592"
     id="path53"
     style="stroke-width:0.630496" />
  <path
     d="m 124.45106,77.591753 a 0.35919065,0.34706909 0 0 0 -0.44899,0.111559 1.4624191,1.413067 0 0 1 -1.33414,0.464825 c -0.5452,-0.123954 -0.76328,-0.731325 -1.03267,-0.737522 -0.2694,-0.0062 -1.71898,1.18995 -1.80237,1.698159 -0.0834,0.508208 0.64141,0.886266 1.47525,0.935847 0.83383,0.04958 2.66827,-0.495813 3.02104,-0.911056 a 1.7510544,1.6919618 0 0 0 0.12188,-1.561812 z"
     fill="#ffffff"
     id="path55"
     style="stroke-width:0.630496" />
  <path
     d="m 129.10129,78.13095 a 2.5656475,2.4790649 0 0 1 -0.21167,1.084591 1.8344379,1.7725314 0 0 1 -0.80818,0.725127 3.2070593,3.0988311 0 0 1 -2.37322,0.229314 0.46823067,0.45242934 0 0 1 -0.2758,-0.16114 0.42974595,0.41524337 0 0 1 -0.0513,-0.229314 1.7895391,1.7291478 0 0 1 0.64142,-1.078393 3.7907441,3.6628184 0 0 0 0.85949,-0.948242 c 0.35919,-0.706534 0.0898,-2.59682 1.47525,-2.293135 1.1353,0.254104 0.7761,1.884089 0.74404,2.671192 z"
     fill="#ce9e95"
     id="path57"
     style="stroke-width:0.630496" />
  <path
     d="m 129.29372,79.413867 c 0,0 0.19242,0.464824 -0.0449,0.737521 -0.23733,0.272698 -2.72601,1.766334 -4.40009,0.563988 -1.67409,-1.202347 2.26418,-1.357288 2.26418,-1.357288 z"
     fill="#178592"
     id="path59"
     style="stroke-width:0.630496" />
  <path
     d="m 129.19751,78.329276 a 0.34636241,0.33467376 0 0 0 -0.449,0.111558 1.4752473,1.4254623 0 0 1 -1.33413,0.458627 c -0.5452,-0.123954 -0.76328,-0.731324 -1.03268,-0.737522 -0.26939,-0.0062 -1.71898,1.189951 -1.80236,1.698159 -0.0834,0.508209 0.64141,0.886266 1.47525,0.935847 0.83383,0.04958 2.66827,-0.495813 3.02104,-0.911056 a 1.7382262,1.6795665 0 0 0 0.12188,-1.555613 z"
     fill="#ffffff"
     id="path61"
     style="stroke-width:0.630496" />
  <path
     d="m 130.08906,58.391396 c 0,0 0.26298,13.73402 -0.79534,18.32029 l -2.66828,0.316081 -1.85368,-18.822301 z"
     fill="#473f47"
     id="path63"
     style="stroke-width:0.630496" />
  <path
     d="m 121.83409,56.891562 c 0,0 -1.28282,7.437194 0.2694,19.311915 l 2.66827,0.316081 1.85368,-18.809905 z"
     fill="#473f47"
     id="path65"
     style="stroke-width:0.630496" />
  <path
     d="m 118.73608,50.978992 c 0,0.495813 0.19883,0.929649 0.6414,1.072196 a 0.39126124,0.3780574 0 0 0 0.11546,0.03099 c 0.82101,0.161139 1.92423,-0.440034 2.64903,-0.966836 a 10.127894,9.7861087 0 0 0 0.89156,-0.706533 V 45.10361 l -3.98958,3.947911 a 6.2986646,6.0861044 0 0 0 -0.30787,1.927473 z"
     fill="#178592"
     id="path67"
     style="stroke-width:0.630496" />
  <path
     d="m 122.07783,51.096748 c 0,0.247906 0,0.50201 0,0.749916 0,1.369684 0.32712,2.782751 -0.0962,4.127644 a 1.5778732,1.524625 0 0 0 -0.11545,0.917254 1.1801979,1.1403699 0 0 0 0.59651,0.551592 11.936675,11.53385 0 0 0 4.10503,1.053602 c 1.05834,0.142546 2.56565,0.446232 3.54701,-0.10536 a 1.7702967,1.7105548 0 0 0 0.69272,-1.109382 21.435985,20.712587 0 0 0 0.64142,-4.338363 c 0,-0.18593 0,-0.378057 0.0384,-0.570185 0.0834,-1.307707 0.10904,-2.627809 0.0834,-3.935515 0,-0.954441 -0.0962,-1.983252 -0.73763,-2.702181 a 7.0555306,6.8174285 0 0 0 -3.75867,-1.784927 4.265389,4.1214454 0 0 0 -1.24434,-0.06817 5.2339209,5.0572924 0 0 0 -1.67408,0.551592 2.8222122,2.7269714 0 0 0 -1.48808,1.146567 8.338354,8.0569607 0 0 0 -0.7248,2.156787 8.1908298,7.9144147 0 0 0 -0.0385,2.131996 c 0.0385,0.347069 0.12828,0.694138 0.16676,1.03501 0.006,0.06817 0.006,0.130151 0.006,0.192127 z"
     fill="#178592"
     id="path69"
     style="stroke-width:0.630496" />
  <path
     d="m 127.86978,58.856221 c 0.4105,0.117755 1.35979,-0.241709 1.67409,-0.297488 0.18601,0 0.35918,-0.123953 0.54519,-0.167337 0.94288,-0.229313 1.05192,-2.776552 1.14171,-3.464493 a 49.24119,47.579454 0 0 0 0.64142,-5.509722 6.2537657,6.0427208 0 0 0 -0.25015,-2.082414 2.4886781,2.4046929 0 0 0 -1.40469,-1.524625 c -1.19944,-0.415244 -1.55864,3.253772 -1.7254,4.009887 l -0.89798,4.146236 a 9.7751168,9.4452377 0 0 0 -0.25014,1.555613 5.6572527,5.4663381 0 0 0 0.40408,1.859299 c 0.10904,0.365662 -0.19242,1.053603 -0.0449,1.320102 a 0.23732239,0.2293135 0 0 0 0.16677,0.154942 z"
     fill="#020202"
     opacity="0.1"
     id="path71"
     style="stroke-width:0.630496" />
  <path
     d="m 124.97701,42.79188 a 0.89156251,0.86147507 0 0 0 0.57727,0.278895 3.2583723,3.1484125 0 0 0 0.55803,0 h 0.10904 a 0.12828237,0.12395324 0 0 1 0.0706,0 0.14111061,0.13634857 0 0 1 0.0385,0.08057 6.4910881,6.2720342 0 0 1 0,1.078392 v 0 0.192128 a 0.39126124,0.3780574 0 0 0 0,0.204523 c 0.0385,0.08057 0.1347,0.111558 0.22449,0.142546 a 1.5265602,1.4750436 0 0 0 0.50672,0.08057 2.2449416,2.1691818 0 0 0 1.02626,-0.347069 9.961126,9.6249694 0 0 1 0.10262,-1.859299 10.198449,9.8542833 0 0 0 0.24374,-2.361309 1.5971156,1.5432179 0 0 0 -0.33995,-0.855278 1.5650449,1.5122296 0 0 0 -1.21227,-0.42144 3.0338781,2.9314943 0 0 0 -1.66126,0.440034 c -0.186,0.117755 -0.20525,0.272697 -0.25015,0.471022 -0.0577,0.309883 -0.10903,0.619766 -0.14752,0.942044 -0.0385,0.322279 -0.0641,0.712731 -0.0706,1.078394 a 1.2828237,1.2395324 0 0 0 0.2245,0.855277 z"
     fill="#ce9e95"
     id="path73"
     style="stroke-width:0.630496" />
  <path
     d="m 125.36186,38.403935 a 0.51954362,0.50201064 0 0 0 -0.42975,0.452429 0.5131295,0.49581299 0 0 0 0.37844,0.495813 0.51954362,0.50201064 0 0 0 0.41692,0.55779 1.4752473,1.4254623 0 0 0 0.7761,-0.09296 0.89156251,0.86147507 0 0 0 1.14172,0.204523 v 0.142546 a 2.4117086,2.330321 0 0 1 0.22449,0.787103 l -0.0706,0.526802 a 0.53878597,0.52060363 0 0 1 0.5901,-0.458627 0.28222122,0.27269714 0 0 1 0.21808,0.06817 0.3078777,0.29748779 0 0 1 0.0449,0.123954 0.52595773,0.50820831 0 0 1 -0.20525,0.427639 c -0.0962,0.06198 -0.21808,0.10536 -0.26298,0.21072 a 0.55161421,0.53299896 0 0 0 0,0.309883 0.59651304,0.57638259 0 0 1 -0.0385,0.353267 l 0.1796,-0.04339 a 0.76328013,0.73752181 0 0 0 0.14752,-0.09916 0.49388714,0.47722 0 0 0 0.12187,-0.390453 0.59651304,0.57638259 0 0 0 0.56444,-0.76851 0.35919065,0.34706909 0 0 0 0.30788,-0.396651 1.0839861,1.0474049 0 0 0 -0.25656,-0.495812 0.57085657,0.55159194 0 0 0 0.56444,-0.551592 0.89797666,0.86767271 0 0 1 0,-0.254105 1.0711578,1.0350096 0 0 1 0.15394,-0.266498 0.57727069,0.5577896 0 0 0 -0.10905,-0.656953 c -0.12827,-0.111558 -0.30787,-0.167337 -0.40408,-0.303686 a 1.4752473,1.4254623 0 0 1 -0.0962,-0.39665 c -0.11546,-0.50201 -0.69273,-0.737522 -1.19944,-0.898661 a 0.98136018,0.94824234 0 0 0 -0.42975,-0.06817 0.33353418,0.32227844 0 0 0 -0.30147,0.260302 0.89156251,0.86147507 0 0 0 -0.48747,-0.198325 c -0.17318,0 -0.3656,0.154941 -0.32071,0.316081 -0.0706,-0.272697 -0.54519,0.433836 -0.57085,0.452429 -0.31429,0.18593 -0.79535,0 -0.64782,0.650754 z"
     fill="#473f47"
     id="path75"
     style="stroke-width:0.630496" />
  <path
     d="m 126.11231,43.08317 h 0.10904 a 0.12828237,0.12395324 0 0 1 0.0706,0 0.14111061,0.13634857 0 0 1 0.0385,0.08057 6.4910881,6.2720342 0 0 1 0,1.078393 v 0 a 1.5009038,1.450253 0 0 0 1.05191,-1.530823 6.2281092,6.0179301 0 0 1 -1.28282,0.359465 z"
     fill="#af807a"
     id="path77"
     style="stroke-width:0.630496" />
  <path
     d="m 115.37507,49.609309 a 7.8508814,7.5859386 0 0 0 1.92425,1.859299 3.8484712,3.7185974 0 0 0 1.80236,0.619765 0.55161421,0.53299896 0 0 0 0.25015,-0.03099 0.67989658,0.6569522 0 0 0 0.34636,-0.229313 1.9947909,1.927473 0 0 0 0.46182,-1.096987 c 0.0449,-1.0598 -1.14171,-1.673368 -1.14171,-1.673368 0,0 -2.70035,-0.830487 -3.02106,-0.694139 -0.17317,0.06817 -0.33994,0.440034 -0.45539,0.756115 -0.11546,0.316081 -0.16678,0.489616 -0.16678,0.489616 z"
     fill="#178592"
     id="path79"
     style="stroke-width:0.630496" />
  <path
     d="m 115.37507,49.609309 a 7.8508814,7.5859386 0 0 0 1.92425,1.859299 3.8484712,3.7185974 0 0 0 1.80236,0.619765 0.55161421,0.53299896 0 0 0 0.25015,-0.03099 0.39126124,0.3780574 0 0 0 0.11545,0.03099 c 0.82101,0.161139 1.92424,-0.440034 2.64904,-0.966835 v 0 l -0.25657,-1.586601 a 6.5872999,6.3649992 0 0 1 -1.69333,1.239532 2.3988804,2.3179257 0 0 1 -1.44959,0.254104 1.4367626,1.3882763 0 0 1 -0.39126,-0.111558 12.513945,12.091639 0 0 1 -2.79656,-1.803519 c -0.0898,0.266499 -0.15394,0.495813 -0.15394,0.495813 z"
     fill="#020202"
     opacity="0.1"
     id="path81"
     style="stroke-width:0.630496" />
  <path
     d="m 133.25123,51.338457 a 6.3435634,6.129488 0 0 1 0.52595,2.900506 c -0.17959,1.189951 -1.0006,2.187774 -1.78954,3.09883 -0.64141,0.09297 -1.43035,0.08057 -1.65484,-0.489615 a 1.4752473,1.4254623 0 0 1 -0.0385,-0.563987 l 0.0898,-1.239533 a 4.6823067,4.5242934 0 0 0 -0.0898,-1.636183 7.6392154,7.3814158 0 0 0 -0.95571,-1.636182 6.5231587,6.3030226 0 0 1 -0.98136,-2.86332 c -0.0706,-0.95444 0.67989,-4.040876 2.1359,-3.098831 0.60293,0.384255 1.14172,1.970856 1.46242,2.609215 q 0.73121,1.431661 1.29566,2.9191 z"
     fill="#178592"
     id="path83"
     style="stroke-width:0.630496" />
  <path
     d="m 129.96079,58.205466 a 0.29504946,0.28509247 0 0 0 -0.0513,0.154942 0.09621178,0.09296493 0 0 0 0.12827,0.08677 c 0.14753,0.440034 -0.16035,0.904858 -0.16035,1.369684 a 0.43616007,0.42144103 0 0 0 0,0.123953 0.30146358,0.29129013 0 0 0 0.10904,0.123953 0.56444244,0.54539429 0 0 0 0.5452,0.03099 1.4624191,1.413067 0 0 0 0.4554,-0.328476 2.2834263,2.2063678 0 0 0 0.60934,-0.892463 2.6426169,2.5534368 0 0 0 0.0898,-0.483418 l 0.15394,-1.239533 c -0.91722,-0.278894 -1.44318,0.322279 -1.87933,1.053603 z"
     fill="#ce9e95"
     id="path85"
     style="stroke-width:0.630496" />
  <path
     d="m 115.52901,47.340964 a 0.5131295,0.49581299 0 0 0 -0.14111,-0.216918 0.16035297,0.15494156 0 0 0 -0.2309,0 0.35919065,0.34706909 0 0 0 -0.0449,0.142546 0.31429181,0.30368546 0 0 1 -0.28863,0.179732 0.98777424,0.95443998 0 0 1 -0.35279,-0.08677 10.211277,9.8666783 0 0 0 -0.98135,-0.29129 0.378433,0.36566207 0 0 0 -0.23732,0 0.33353418,0.32227844 0 0 0 -0.16677,0.198325 1.2828237,1.2395324 0 0 0 0.20525,1.16516 2.0717604,2.0018449 0 0 0 1.05191,0.669348 5.509728,5.3237919 0 0 0 1.28283,0.179733 0.57085657,0.55159194 0 0 0 0.31429,-0.04339 c 0.51313,-0.285092 -0.26298,-1.568009 -0.41051,-1.896484 z"
     fill="#ce9e95"
     id="path87"
     style="stroke-width:0.630496" />
  <path
     d="m 84.670696,56.600272 c 0,0 0,5.739035 -0.423332,6.780242 -1.096814,2.912902 -2.565648,4.102852 -2.565648,4.102852 q -0.865906,3.167006 -1.718983,6.340209 c 0.558028,0.619766 1.488075,1.239532 2.116659,0.700336 a 1.7061556,1.6485781 0 0 0 0.378433,-0.557789 l 3.02105,-6.358802 a 16.824234,16.256468 0 0 0 1.44959,-3.904527 v -0.117756 -0.03099 c 0,-0.08057 0.0449,-0.347068 0.08338,-0.731324 v 0 c 0.09621,-1.121777 -0.09621,-6.426976 -0.641412,-7.821449 0,0 -2.033275,0.675545 -2.616961,-0.09297 z"
     fill="#178592"
     id="path89"
     style="stroke-width:0.630496" />
  <path
     d="m 84.670696,56.600272 c 0,0 0,5.739035 -0.423332,6.780242 -1.096814,2.912902 -2.565648,4.102852 -2.565648,4.102852 q -0.865906,3.167006 -1.718983,6.340209 c 0.558028,0.619766 1.488075,1.239532 2.116659,0.700336 a 1.7061556,1.6485781 0 0 0 0.378433,-0.557789 l 3.02105,-6.358802 a 16.824234,16.256468 0 0 0 1.44959,-3.904527 v -0.117756 -0.03099 c 0,-0.08057 0.0449,-0.347068 0.08338,-0.731324 v 0 c 0.09621,-1.121777 -0.07697,-5.416756 -0.590099,-6.817428 a 2.0204474,1.9522636 0 0 1 -1.802367,-0.563988 z"
     fill="url(#linear-gradient-3)"
     id="path91"
     style="fill:url(#linear-gradient-3);stroke-width:0.630496" />
  <path
     d="M 79.609956,55.775982 A 3.6432194,3.5202722 0 0 0 79.0391,58.391396 c 0.205251,1.369684 1.218682,2.479065 1.423934,3.830155 a 1.6356002,1.5804039 0 0 1 -1.045502,1.648578 l -3.951097,1.970857 a 4.0601371,3.9231203 0 0 0 -1.718983,1.295312 1.4111061,1.3634857 0 0 0 0.333534,1.859298 L 81.68813,67.50196 a 6.9721471,6.7368589 0 0 0 3.053121,-3.805365 c 0.288636,-1.072196 -0.102626,-8.255286 -0.102626,-8.255286 -1.23151,-1.14037 -1.654842,-0.712731 -2.418123,-1.580404 -0.917218,0.669347 -1.924235,1.016416 -2.610546,1.915077 z"
     fill="#178592"
     id="path93"
     style="stroke-width:0.630496" />
  <path
     d="m 73.478059,70.173152 c 0,0.415243 0.08338,0.911056 -0.243737,1.189952 a 0.15393885,0.1487439 0 0 1 -0.10904,0.05578 0.24373651,0.23551117 0 0 1 -0.166767,-0.06817 c -0.750452,-0.619769 -0.949289,-1.654778 -1.013431,-2.609218 a 1.0775719,1.0412072 0 0 1 0.121869,-0.700336 1.2315108,1.1899512 0 0 1 0.641412,-0.340872 6.6899258,6.4641617 0 0 0 1.128884,-0.446231 c -0.10904,0.05578 -0.07055,0.675545 -0.07055,0.780906 a 3.5726641,3.4520979 0 0 1 0.07055,0.706533 6.0998269,5.8939768 0 0 1 -0.250151,0.619766 2.6875157,2.5968205 0 0 0 -0.109039,0.811894 z"
     fill="#ec9c7d"
     id="path95"
     style="stroke-width:0.630496" />
  <path
     d="m 81.79717,76.067129 a 1.8793368,1.815915 0 0 1 0.307878,0.997824 0.30146358,0.29129013 0 0 1 -0.07697,0.173534 c -0.134696,0.123953 -0.352776,0.03719 -0.500301,-0.06197 a 6.4141187,6.1976623 0 0 1 -1.436763,-1.555613 0.53878597,0.52060363 0 0 1 -0.121868,-0.241709 0.59651304,0.57638259 0 0 1 0.102626,-0.340872 l 0.43616,-0.774707 a 0.17318121,0.16733688 0 0 1 0.05131,-0.06198 0.14111061,0.13634857 0 0 1 0.0898,0 3.5470076,3.4273073 0 0 1 0.673482,0.198326 c 0.29505,0.117755 0.301464,0.13015 0.269394,0.42144 a 2.5656475,2.4790649 0 0 0 0.205251,1.245731 z"
     fill="#ec9c7d"
     id="path97"
     style="stroke-width:0.630496" />
  <path
     d="m 79.609956,76.067129 a 0.22449416,0.21691818 0 0 0 0,0.123953 c 0,0.05578 0.07055,0.09297 0.115454,0.123953 a 4.6758925,4.5180958 0 0 1 0.692725,0.66315 13.649245,13.188626 0 0 0 1.481662,1.239533 1.0519155,1.0164166 0 0 0 0.763279,0.309883 0.24373651,0.23551117 0 0 0 0.09621,0 0.21166592,0.20452286 0 0 0 0.05773,-0.130151 2.3924663,2.311728 0 0 0 -0.211666,-1.239533 1.3918637,1.3448927 0 0 0 -0.256564,-0.415243 0.60292716,0.58258026 0 0 0 -0.455403,-0.18593 c -0.18601,0 -0.352777,0.148744 -0.5452,0.148744 a 0.73120953,0.7065335 0 0 1 -0.474649,-0.285093 4.214076,4.0718642 0 0 1 -0.404089,-0.520603 c -0.0898,-0.136349 -0.173181,-0.384255 -0.320706,-0.471022 -0.339948,-0.235511 -0.474645,0.427638 -0.538786,0.638359 z"
     fill="#178592"
     id="path99"
     style="stroke-width:0.630496" />
  <path
     d="m 71.534581,68.208493 a 0.21166592,0.20452286 0 0 0 -0.06414,0.303685 5.5995257,5.4105592 0 0 1 0.21808,1.047405 14.867927,14.366181 0 0 0 0.57727,2.101008 1.2379249,1.1961488 0 0 0 0.519544,0.76851 0.25015063,0.24170883 0 0 0 0.115455,0 0.28222122,0.27269714 0 0 0 0.14111,-0.08677 2.7901416,2.6959831 0 0 0 0.641412,-1.313905 1.4560049,1.4068693 0 0 0 0,-0.557789 0.67989658,0.6569522 0 0 0 -0.307878,-0.452429 c -0.18601,-0.09916 -0.429746,-0.07438 -0.609341,-0.198325 a 0.77610836,0.74991714 0 0 1 -0.262979,-0.55779 5.131295,4.9581299 0 0 1 -0.03849,-0.737522 c 0,-0.192127 0.08338,-0.47722 0,-0.619766 -0.173181,-0.402848 -0.737623,0.142546 -0.930047,0.303685 z"
     fill="#178592"
     id="path101"
     style="stroke-width:0.630496" />
  <path
     d="m 86.928465,41.893219 a 8.101032,7.8276476 0 0 1 -0.756866,2.479065 0.38484712,0.37185974 0 0 1 -0.147524,0.198325 0.41691772,0.40284805 0 0 1 -0.21808,0.03719 l -2.988979,-0.03719 c -0.237323,0 -0.532372,-0.03719 -0.641412,-0.254104 -0.09621,0.192128 -0.372019,0.204523 -0.590099,0.179732 a 7.748255,7.4867761 0 0 1 -2.732415,-0.818091 22.866333,22.094666 0 0 1 1.244339,-3.278564 3.7650877,3.6380277 0 0 1 0.699139,-1.016416 3.6496335,3.5264698 0 0 1 1.379036,-0.793301 c 1.282823,-0.446232 3.110847,-0.694138 4.092208,0.452429 a 3.8484712,3.7185974 0 0 1 0.660653,2.850925 z"
     fill="#f89659"
     id="path103"
     style="stroke-width:0.630496" />
  <path
     d="m 86.838668,45.996072 c 1.19944,1.196149 2.430951,2.373704 3.604735,3.594643 a 9.6211783,9.2964934 0 0 1 1.154541,-0.681742 C 92.13673,48.698252 95.645253,46.9815 96.998632,46.715 a 4.3423583,4.1958174 0 0 1 2.180803,0.111558 0.45540243,0.44003402 0 0 1 0.28222,0.192128 c 0.0962,0.185929 -0.11546,0.390453 -0.32071,0.433836 a 3.45721,3.34054 0 0 0 -0.641409,0.10536 1.353379,1.3077068 0 0 0 -0.429747,0.390453 2.4886781,2.4046929 0 0 1 -1.840851,0.805696 c -0.288636,0 -0.583685,-0.136349 -0.865906,-0.117755 a 2.5656475,2.4790649 0 0 0 -1.045502,0.563987 c -0.942875,0.619766 -1.783125,1.406869 -2.738829,2.026636 a 1.353379,1.3077068 0 0 1 -0.641411,0.272697 1.5009038,1.450253 0 0 1 -0.641412,-0.142547 11.269607,10.889293 0 0 1 -3.848472,-2.113403 1.0006025,0.96683534 0 0 1 -0.224494,-0.285092 1.135299,1.0969862 0 0 1 -0.05131,-0.347069 c 0,-0.483418 0,-0.973033 0,-1.456451 a 1.4752473,1.4254623 0 0 1 0.147525,-0.619766 0.52595773,0.50820831 0 0 1 0.57727,-0.260302"
     fill="#fdb9a9"
     id="path105"
     style="stroke-width:0.630496" />
  <path
     d="m 89.122094,49.782843 a 1.6163579,1.5618109 0 0 0 0.378433,0.223116 2.1743862,2.1010075 0 0 0 0.936462,0.08677 8.8771401,8.577565 0 0 1 1.430348,0.08057 0.75686601,0.73132415 0 0 1 0.339948,0.10536 0.27580711,0.26649948 0 0 1 0.115455,0.297488 0.44257419,0.4276387 0 0 1 -0.134697,0.148744 2.6746875,2.5844252 0 0 1 -1.282824,0.669347 2.6939299,2.6030182 0 0 1 -1.674085,-0.514405 l -1.051916,-0.619767 a 1.1224707,1.0845909 0 0 1 -0.404089,-0.316081 c -0.147525,-0.223116 -0.179595,-0.836684 0.179595,-0.898661 0.359191,-0.06197 0.930048,0.582581 1.16737,0.737522 z"
     fill="#de9f93"
     id="path107"
     style="stroke-width:0.630496" />
  <path
     d="m 86.222912,45.190375 c -0.378432,-0.278894 -0.821006,-0.08677 -1.282823,-0.06817 -0.461816,0.01859 -1.032673,0.03719 -1.545803,0 -0.98136,-0.03099 -2.565647,-0.13015 -3.470038,0.904859 -1.077572,1.239532 -0.230909,3.284761 0.32712,4.58627 a 3.726603,3.6008418 0 0 1 0.410504,1.090788 5.0671538,4.8961532 0 0 1 0,1.276719 5.2018502,5.0263041 0 0 1 -0.98136,2.280739 1.1994402,1.1589629 0 0 0 -0.37202,0.855278 1.0198449,0.98542833 0 0 0 0.577271,0.619766 7.3377518,7.0901256 0 0 0 3.367412,0.960638 7.3826506,7.1335093 0 0 0 1.642015,-0.204523 c 0.487473,-0.07438 1.019845,0.08677 1.379035,-0.353266 a 1.4624191,1.413067 0 0 0 0.230909,-0.514406 c 0.410504,-1.493637 0.404089,-3.098832 1.019845,-4.511899 0.32712,-0.76851 0.878733,-1.698159 0.827421,-2.553437 A 3.2070593,3.0988311 0 0 0 88.083007,48.605287 C 87.775129,47.85537 87.441595,47.117848 87.069576,46.398919 a 3.3930688,3.2785634 0 0 0 -0.846664,-1.208544 z"
     fill="#ffffff"
     id="path109"
     style="stroke-width:0.630496" />
  <path
     d="m 85.010644,45.500258 c 0,0 -0.320706,0.780906 -2.456608,-0.371859 0,0 0.577272,-0.04958 0.416918,-1.196149 a 2.5656475,2.4790649 0 0 0 -0.416918,-1.103184 0.20525179,0.19832519 0 0 0 0.346363,-0.09296 2.0974168,2.0266356 0 0 0 0.147525,0.328476 c 0.333534,0.619766 1.064744,1.357288 1.879337,1.146568 a 1.2828237,1.2395324 0 0 0 -0.07697,0.97923 1.5393885,1.487439 0 0 0 0.160353,0.309883 z"
     fill="#fdb9a9"
     id="path111"
     style="stroke-width:0.630496" />
  <path
     d="m 84.850291,45.190375 h -0.10904 c -0.801765,0.08057 -1.744641,-2.181577 -1.744641,-2.181577 h 0.05131 c 0.333534,0.619766 1.064743,1.357288 1.879337,1.146568 a 1.2828237,1.2395324 0 0 0 -0.07697,1.035009 z"
     fill="#de9f93"
     id="path113"
     style="stroke-width:0.630496" />
  <path
     d="m 84.24095,44.297912 c 1.167369,0.09916 1.885751,-0.960638 2.014033,-2.342717 q 0,-0.229313 0,-0.464824 A 5.7727069,5.577896 0 0 0 86.09463,40.151676 c -0.51313,-2.125799 -3.636805,-1.276718 -3.636805,-1.276718 -2.437365,1.065997 -0.282221,5.261815 1.783125,5.422954 z"
     fill="#fdb9a9"
     id="path115"
     style="stroke-width:0.630496" />
  <path
     d="m 85.074785,38.831574 a 3.7715018,3.6442254 0 0 1 -0.147524,0.489615 9.576279,9.2531095 0 0 1 -0.352777,0.985429 3.2070593,3.0988311 0 0 1 -1.282824,1.568008 0.80176485,0.7747078 0 0 1 -0.474644,0.142546 c -0.160353,-0.03099 -0.147525,-0.148744 -0.269394,-0.260302 a 0.28222122,0.27269714 0 0 0 -0.314291,-0.04958 0.33994829,0.3284761 0 0 0 -0.128283,0.272697 0.76969422,0.74371947 0 0 0 0.365605,0.619766 1.6612567,1.6051945 0 0 1 0.29505,0.16114 c 0.10904,0.09296 0.121868,0.229314 0.179595,0.347069 l 0.192423,0.440034 a 0.98777424,0.95443998 0 0 1 0.102626,0.446232 0.64141187,0.61976623 0 0 1 -0.314291,0.427638 2.0653462,1.9956472 0 0 1 -1.379036,0.173535 1.9883768,1.9212753 0 0 1 -0.936461,-0.285093 4.4898831,4.3383636 0 0 1 -0.442575,-0.39665 3.2583723,3.1484125 0 0 0 -0.731209,-0.390453 2.6875157,2.5968205 0 0 0 0.686311,-0.66315 2.0461039,1.9770543 0 0 0 0.192423,-1.648578 c -0.102626,-0.347069 0,-2.193972 1.346965,-2.807541 a 4.3936713,4.2453987 0 0 1 2.751657,-0.247907 0.93004721,0.89866106 0 0 1 0.461816,0.204524 0.5131295,0.49581299 0 0 1 0.198838,0.471021 z"
     fill="#f89659"
     id="path117"
     style="stroke-width:0.630496" />
  <path
     d="m 82.99661,51.747502 -0.891562,1.902682 a 16.343175,15.791644 0 0 1 -2.661859,-4.834176 c -0.641412,-2.212566 0.493887,-2.770356 0.493887,-2.770356 0.872321,-0.309882 1.462419,0.886266 2.315497,3.309553 0.46823,1.332497 0.744037,2.392297 0.744037,2.392297 z"
     fill="#fdb9a9"
     id="path119"
     style="stroke-width:0.630496" />
  <path
     d="m 82.105048,53.650184 c 0,0 -0.03849,-1.549415 0.744038,-1.859299 0.782523,-0.309882 6.247352,-1.140369 6.247352,-1.140369 l 0.513129,0.576383 c 0,0 -5.368617,2.99347 -7.504519,2.423285 z"
     fill="#fdb9a9"
     id="path121"
     style="stroke-width:0.630496" />
  <path
     d="m 90.96936,57.734444 -0.07055,-0.06817 c 0.269394,0.291291 0.448989,0.495814 0.500302,0.55779 -0.134697,-0.167336 -0.282221,-0.334674 -0.429746,-0.489615 z"
     fill="#dc9bd5"
     id="path123"
     style="stroke-width:0.630496" />
  <path
     d="m 89.686537,50.569946 a 9.6211783,9.2964934 0 0 1 1.41752,-0.136349 3.0467064,2.9438896 0 0 1 0.76328,0.06197 4.3359442,4.1896197 0 0 1 0.904391,0.340871 c 0.07697,0.03719 0.173181,0.08677 0.186009,0.173535 a 0.21166592,0.20452286 0 0 1 -0.121868,0.192128 1.1096425,1.0721956 0 0 1 -0.237322,0.06817 c -0.173182,0.05578 -0.327121,0.167337 -0.493888,0.235512 -0.269393,0.10536 -0.57727,0.09296 -0.853077,0.18593 -0.173182,0.06198 -0.333534,0.167336 -0.506716,0.23551 a 1.5586309,1.506032 0 0 1 -1.128885,0 3.7586736,3.6318301 0 0 1 -0.365605,-0.161139 2.0204474,1.9522636 0 0 0 -0.35919,-0.161138 c -0.08338,0 -0.141111,0 -0.205252,-0.07438 a 0.64141187,0.61976623 0 0 1 0,-0.619767 0.87232017,0.84288207 0 0 1 0.583685,-0.216918 z"
     fill="#fdb9a9"
     id="path125"
     style="stroke-width:0.630496" />
  <path
     d="M 79.096827,46.801767 A 6.4141187,6.1976623 0 0 0 78.814606,48.0413 l -0.08338,0.570185 a 0.64141187,0.61976623 0 0 0 0,0.359464 c 0.102626,0.198326 0.493887,0.117756 0.68631,0.148744 l 1.051916,0.16114 2.097417,0.297487 a 4.323116,4.1772244 0 0 0 0,-1.041207 c -0.06414,-0.322279 -0.211666,-0.619767 -0.29505,-0.948243 -0.08338,-0.328476 -0.09621,-0.539196 -0.160353,-0.780904 a 2.5656475,2.4790649 0 0 0 -0.955703,-1.363487 c -0.737624,-0.520603 -1.815196,0.737522 -2.03969,1.307707 z"
     fill="#ffffff"
     style="isolation:isolate;stroke-width:0.630496"
     id="path127" />
  <rect
     x="92.835861"
     y="37.282162"
     width="22.410931"
     height="19.460659"
     fill="#ffffff"
     id="rect129"
     style="stroke-width:0.630496" />
  <rect
     x="95.651527"
     y="50.583641"
     width="2.7452412"
     height="3.9417164"
     transform="matrix(0.99999039,-0.00438471,0.00469632,0.99998897,0,0)"
     fill="#178592"
     id="rect131"
     style="stroke-width:0.630496" />
  <rect
     x="99.038124"
     y="46.493237"
     width="2.7452412"
     height="8.0259781"
     transform="matrix(0.99999039,-0.00438471,0.00469632,0.99998897,0,0)"
     fill="#178592"
     id="rect133"
     style="stroke-width:0.630496" />
  <rect
     x="102.42468"
     y="49.635426"
     width="2.7452412"
     height="4.8899589"
     transform="matrix(0.99999039,-0.00438471,0.00469632,0.99998897,0,0)"
     fill="#178592"
     id="rect135"
     style="stroke-width:0.630496" />
  <rect
     x="105.80486"
     y="43.952225"
     width="2.7452412"
     height="10.573219"
     transform="matrix(0.99999039,-0.00438471,0.00469632,0.99998897,0,0)"
     fill="#178592"
     id="rect137"
     style="stroke-width:0.630496" />
  <rect
     x="99.038124"
     y="46.493237"
     width="2.7452412"
     height="8.0259781"
     transform="matrix(0.99999039,-0.00438471,0.00469632,0.99998897,0,0)"
     fill="url(#linear-gradient-4)"
     id="rect139"
     style="fill:url(#linear-gradient-4);stroke-width:0.630496" />
  <rect
     x="105.80486"
     y="43.952225"
     width="2.7452412"
     height="10.573219"
     transform="matrix(0.99999039,-0.00438471,0.00469632,0.99998897,0,0)"
     fill="url(#linear-gradient-5)"
     id="rect141"
     style="fill:url(#linear-gradient-5);stroke-width:0.630496" />
  <rect
     x="109.19143"
     y="41.002159"
     width="2.7452412"
     height="13.523309"
     transform="matrix(0.99999039,-0.00438471,0.00469632,0.99998897,0,0)"
     fill="#178592"
     id="rect143"
     style="stroke-width:0.630496" />
  <polygon
     points="82.06,88.22 73.45,87.94 74.52,94.08 80.62,94.27 "
     fill="#178592"
     id="polygon145"
     transform="matrix(0.64141187,0,0,0.61976623,53.466008,18.633393)" />
  <polygon
     points="82.06,88.22 73.45,87.94 74.52,94.08 80.62,94.27 "
     fill="url(#linear-gradient-6)"
     id="polygon147"
     style="fill:url(#linear-gradient-6)"
     transform="matrix(0.64141187,0,0,0.61976623,53.466008,18.633393)" />
  <path
     d="m 100.13513,63.950699 a 1.8344379,1.7725314 0 0 0 -0.198835,0.861475 11.878948,11.478071 0 0 0 0.359185,4.009888 c 0.64142,1.890287 2.03969,3.414912 3.43156,4.87756 -0.10904,-0.161139 0.20525,-1.016417 0.24373,-1.239533 0.0834,-0.402848 0.17319,-0.799498 0.25657,-1.196148 a 4.4898831,4.3383636 0 0 0 -0.17318,-1.902683 9.447997,9.1291567 0 0 0 -1.99479,-3.792969 8.7745145,8.4784021 0 0 0 -1.92424,-1.61759 z"
     fill="#178592"
     id="path149"
     style="stroke-width:0.630496" />
  <path
     d="m 100.13513,63.950699 a 1.8344379,1.7725314 0 0 0 -0.198835,0.861475 11.878948,11.478071 0 0 0 0.359185,4.009888 c 0.64142,1.890287 2.03969,3.414912 3.43156,4.87756 -0.10904,-0.161139 0.20525,-1.016417 0.24373,-1.239533 0.0834,-0.402848 0.17319,-0.799498 0.25657,-1.196148 a 4.4898831,4.3383636 0 0 0 -0.17318,-1.902683 9.447997,9.1291567 0 0 0 -1.99479,-3.792969 8.7745145,8.4784021 0 0 0 -1.92424,-1.61759 z"
     fill="url(#linear-gradient-7)"
     id="path151"
     style="fill:url(#linearGradient1017);stroke-width:0.630496" />
  <path
     d="m 106.30551,68.512178 a 12.911621,12.475894 0 0 0 1.11606,-3.098831 4.3167019,4.1710267 0 0 0 -0.64141,-3.154609 l -2.67469,3.916922 a 9.1401193,8.8316688 0 0 0 -1.28282,2.392297 6.6321987,6.4083828 0 0 0 1.00701,5.113072 c 0.59652,-0.495813 0.87874,-1.629985 1.20586,-2.330321 z"
     fill="#178592"
     id="path153"
     style="stroke-width:0.630496" />
  <path
     d="m 106.30551,68.512178 a 12.911621,12.475894 0 0 0 1.11606,-3.098831 4.3167019,4.1710267 0 0 0 -0.64141,-3.154609 l -2.67469,3.916922 a 9.1401193,8.8316688 0 0 0 -1.28282,2.392297 6.6321987,6.4083828 0 0 0 1.00701,5.113072 c 0.59652,-0.495813 0.87874,-1.629985 1.20586,-2.330321 z"
     fill="url(#linear-gradient-8)"
     id="path155"
     style="fill:url(#linear-gradient-8);stroke-width:0.630496" />
  <rect
     x="101.88232"
     y="68.653336"
     width="7.7159176"
     height="1.7292118"
     rx="0.89794552"
     transform="matrix(0.99951333,0.03119461,-0.03340924,0.99944176,0,0)"
     fill="#178592"
     id="rect157"
     style="stroke-width:0.630497" />
  <ellipse
     cx="100.64826"
     cy="44.899086"
     fill="#178592"
     id="circle159"
     rx="0.4554024"
     ry="0.440034"
     style="stroke-width:0.630496" />
  <ellipse
     cx="96.819031"
     cy="49.094902"
     fill="#178592"
     id="circle161"
     rx="0.4554024"
     ry="0.440034"
     style="stroke-width:0.630496" />
  <ellipse
     cx="103.94512"
     cy="48.264416"
     fill="#178592"
     id="circle163"
     rx="0.4554024"
     ry="0.440034"
     style="stroke-width:0.630496" />
  <ellipse
     cx="107.21632"
     cy="42.562565"
     fill="#178592"
     id="circle165"
     rx="0.4554024"
     ry="0.440034"
     style="stroke-width:0.630496" />
  <ellipse
     cx="110.78899"
     cy="39.804607"
     fill="#178592"
     id="circle167"
     rx="0.4554024"
     ry="0.440034"
     style="stroke-width:0.630496" />
  <polygon
     points="83.66,38.44 89.23,33.98 89.5,34.33 83.97,38.75 78.74,48.44 73.56,42.71 67.75,49.29 67.42,49 73.56,42.05 78.65,47.67 "
     fill="#178592"
     id="polygon169"
     transform="matrix(0.64141187,0,0,0.61976623,53.466008,18.633393)" />
  <path
     d="m 110.1155,31.109286 a 2.3475674,2.2683444 0 0 1 -2.34115,2.268345 h -6.02286 a 2.3475674,2.2683444 0 0 1 0,-4.536688 h 0.8659 a 1.7382262,1.6795665 0 0 1 0,-0.179733 2.1554887,2.0827477 0 0 1 4.31029,-0.07438 v 0.07438 a 1.6933274,1.6361829 0 0 1 0,0.179733 h 0.86591 a 2.3411533,2.2621468 0 0 1 2.34115,2.268343 z"
     fill="#178592"
     opacity="0.31"
     style="isolation:isolate;stroke-width:0.630496"
     id="path171" />
  <path
     d="m 109.3907,30.892368 a 2.3475674,2.2683444 0 0 1 -2.34756,2.268345 h -6.01645 a 2.3475674,2.2683444 0 1 1 0,-4.530491 h 0.8595 c 0,-0.06197 0,-0.123954 0,-0.18593 a 2.1551439,2.0824145 0 0 1 4.31028,0 v 0 a 1.7382262,1.6795665 0 0 1 0,0.179732 h 0.8595 a 2.3539816,2.274542 0 0 1 2.33473,2.268344 z"
     fill="#ffffff"
     id="path173"
     style="stroke-width:0.630496" />
  <path
     d="m 128.43423,40.852012 a 0.19242356,0.18592987 0 0 1 0.17958,0 0.18600944,0.1797322 0 0 1 0.0513,0.08677 0.64141187,0.61976623 0 0 1 -0.30147,0.799498 0.42333183,0.40904571 0 0 1 -0.15393,0.06817 0.15393885,0.1487439 0 0 1 -0.15394,-0.04339 0.20525179,0.19832519 0 0 1 -0.0513,-0.142546 0.69272482,0.66934753 0 0 1 0.42975,-0.76851 z"
     fill="#ce9e95"
     id="path175"
     style="stroke-width:0.630496" />
  <path
     d="m 123.05278,29.956522 a 2.8735251,2.7765527 0 0 1 -0.40409,1.425462 v 0.03719 l -1.28283,2.268343 h -2.69393 l -1.09039,-2.448076 a 2.8927676,2.7951457 0 1 1 5.47124,-1.282916 z"
     fill="#178592"
     id="path177"
     style="stroke-width:0.630496" />
  <path
     d="m 123.05278,29.956522 a 2.8735251,2.7765527 0 0 1 -0.40409,1.425462 v 0.03719 l -1.28283,2.268343 h -2.69393 l -1.09039,-2.448076 a 2.8991816,2.8013434 0 0 1 0.9108,-3.569854 2.8671111,2.770355 0 0 1 1.66767,-0.508207 2.8927676,2.7951457 0 0 1 2.89277,2.795145 z"
     fill="url(#linear-gradient-9)"
     id="path179"
     style="fill:url(#linearGradient1019);stroke-width:0.630496" />
  <path
     d="m 121.61601,29.900743 c -0.0641,1.239532 -1.19302,3.786771 -1.19302,3.786771 h -1.75106 l -1.09039,-2.448076 a 2.8991816,2.8013434 0 0 1 0.9108,-3.569854 2.4052945,2.3241234 0 0 1 3.12367,2.231159 z"
     fill="url(#linear-gradient-10)"
     id="path181"
     style="fill:url(#linear-gradient-10);stroke-width:0.630496" />
  <path
     d="m 118.67193,33.681316 h 2.64903 v 0.836685 a 1.2828237,1.2395324 0 0 1 -1.28282,1.239533 h -0.12828 a 1.2828237,1.2395324 0 0 1 -1.28282,-1.239533 v -0.836685 z"
     fill="#178592"
     id="path183"
     style="stroke-width:0.630496" />
  <path
     d="m 119.44163,33.780479 a 0.09621178,0.09296493 0 0 1 -0.10263,-0.08057 c -0.42974,-2.17538 -0.49389,-2.510054 -0.50671,-2.559635 v 0 0 a 0.1026259,0.0991626 0 0 1 0.0834,-0.111558 h 0.2758 c 0.15395,0 0.20526,0 0.23091,-0.111558 a 0.23732239,0.2293135 0 0 1 0.077,-0.142546 0.18600944,0.1797322 0 0 1 0.25014,0.03099 0.32712006,0.31608077 0 0 1 0.077,0.161139 l 0.077,0.291291 c 0,0 0,0 0,-0.04339 a 0.46181655,0.44623169 0 0 1 0.077,-0.179732 0.26297886,0.25410416 0 0 1 0.21809,-0.08057 0.28222122,0.27269714 0 0 1 0.186,0.08677 c 0,-0.111558 0.0641,-0.223117 0.10263,-0.328476 0.0385,-0.10536 0.12828,-0.130151 0.14753,-0.117756 a 0.14752473,0.14254623 0 0 1 0.14111,0.117756 1.2828237,1.2395324 0 0 1 0.0449,0.266499 0.22449416,0.21691818 0 0 0 0,0.08057 h 0.077 0.0834 0.17959 a 0.1026259,0.0991626 0 0 1 0.077,0.03719 0.1026259,0.0991626 0 0 1 0,0.08057 l -0.51954,2.565832 a 0.1026259,0.0991626 0 1 1 -0.19884,-0.03719 l 0.49389,-2.448077 h -0.10263 c -0.077,0 -0.21167,0.03719 -0.28222,-0.06817 a 0.36560476,0.35326675 0 0 1 -0.0449,-0.167337 v 0 a 1.3918637,1.3448927 0 0 1 -0.0449,0.148744 c -0.0385,0.142546 -0.1347,0.173534 -0.20525,0.161139 a 0.19883768,0.19212753 0 0 1 -0.12828,-0.09916 c 0,0 0,-0.03719 -0.0513,-0.03719 a 0.04489883,0.04338364 0 0 0 -0.0449,0 0.26939299,0.26030182 0 0 0 -0.0385,0.09296 0.64141187,0.61976623 0 0 1 -0.0577,0.161139 0.19883768,0.19212753 0 0 1 -0.23732,0.07437 0.24373651,0.23551117 0 0 1 -0.10263,-0.148745 l -0.0834,-0.334673 a 0.08979767,0.08676727 0 0 0 0,-0.03719 0.38484712,0.37185974 0 0 1 -0.42334,0.254104 h -0.13469 c 0.0962,0.508208 0.48106,2.448077 0.48106,2.448077 a 0.09621178,0.09296493 0 0 1 -0.077,0.111558 z"
     fill="#178592"
     id="path185"
     style="stroke-width:0.630496" />
</svg>
