<?xml version="1.0" encoding="UTF-8" standalone="no"?>
<svg
   xmlns:dc="http://purl.org/dc/elements/1.1/"
   xmlns:cc="http://creativecommons.org/ns#"
   xmlns:rdf="http://www.w3.org/1999/02/22-rdf-syntax-ns#"
   xmlns:svg="http://www.w3.org/2000/svg"
   xmlns="http://www.w3.org/2000/svg"
   xmlns:xlink="http://www.w3.org/1999/xlink"
   xmlns:sodipodi="http://sodipodi.sourceforge.net/DTD/sodipodi-0.dtd"
   xmlns:inkscape="http://www.inkscape.org/namespaces/inkscape"
   height="217"
   width="1440"
   version="1.1"
   id="svg14"
   sodipodi:docname="footer.svg"
   inkscape:version="1.0.1 (3bc2e813f5, 2020-09-07)">
  <metadata
     id="metadata18">
    <rdf:RDF>
      <cc:Work
         rdf:about="">
        <dc:format>image/svg+xml</dc:format>
        <dc:type
           rdf:resource="http://purl.org/dc/dcmitype/StillImage" />
      </cc:Work>
    </rdf:RDF>
  </metadata>
  <sodipodi:namedview
     pagecolor="#ffffff"
     bordercolor="#666666"
     borderopacity="1"
     objecttolerance="10"
     gridtolerance="10"
     guidetolerance="10"
     inkscape:pageopacity="0"
     inkscape:pageshadow="2"
     inkscape:window-width="1817"
     inkscape:window-height="775"
     id="namedview16"
     showgrid="false"
     inkscape:zoom="1.08125"
     inkscape:cx="528.2132"
     inkscape:cy="154.16742"
     inkscape:window-x="0"
     inkscape:window-y="27"
     inkscape:window-maximized="0"
     inkscape:current-layer="g12" />
  <defs
     id="defs6">
    <path
       id="a"
       d="m261.7 286.682c421.477 0 1488.977 176.078 1488.977 39.234s478.754-248.043 57.278-248.043c-198.746 0-468.566 3.555-719.957-11.23-281.727-16.567-546.098-39.416-743.021-14.205-372.642 47.707-504.753 234.245-83.277 234.245z" />
    <mask
       id="b"
       fill="#fff">
      <use
         fill="#fff"
         fill-rule="evenodd"
         xlink:href="#a"
         id="use3" />
    </mask>
  </defs>
  <g
     fill="#fe9603"
     fill-rule="evenodd"
     transform="translate(-285 -41)"
     id="g12">
    <use
       opacity=".5"
       xlink:href="#a"
       id="use8" />
    <path
       d="m445.7 387.682c421.477 0 972.745 179.787 972.745 42.943s579.941-255.246 158.465-255.246-706.969-146.996-706.969-10.152c0 136.843-845.717 222.455-424.24 222.455z"
       mask="url(#b)"
       opacity=".5"
       id="path10" />
    <path
       style="fill:#fcc433;fill-opacity:0;stroke-width:0"
       d="m 1139.606,333.99809 c -65.5433,-3.06686 -140.01801,-7.97897 -223.81507,-14.76208 -84.12476,-6.80963 -146.7743,-12.5219 -379.65318,-34.61612 -88.77545,-8.42251 -145.25099,-13.62388 -200.59413,-18.47464 -14.44237,-1.26585 -26.39003,-2.43272 -26.55033,-2.59302 -0.1603,-0.16031 4.16486,-1.4743 9.61147,-2.91998 83.05538,-22.04526 151.16582,-45.42426 194.41161,-66.73207 49.41519,-24.34756 72.13873,-46.76214 72.13873,-71.15789 0,-8.8365 2.38647,-19.59393 5.94646,-26.804748 13.44415,-27.231355 51.92871,-35.12298 128.15758,-26.279932 26.67586,3.094573 55.9466,7.587685 135.11056,20.73971 129.40571,21.49901 196.2885,30.57605 272.2883,36.95375 53.0835,4.45462 87.6562,6.04633 151.2139,6.96182 30.2659,0.43596 55.1329,0.82378 55.2601,0.86183 0.1271,0.038 0.2262,21.19057 0.2201,47.0056 l -0.011,46.93641 -24.2665,12.2399 c -70.9443,35.78418 -114.247,62.5718 -140.0182,86.6174 -6.4837,6.0495 -7.9783,7.01906 -10.6359,6.8992 -1.7006,-0.0767 -10.1671,-0.47051 -18.8145,-0.87514 z"
       id="path853"
       transform="translate(285,41)" />
    <path
       style="fill:#fcc433;fill-opacity:0;stroke-width:0"
       d="m 1139.606,333.99809 c -65.5433,-3.06686 -140.01801,-7.97897 -223.81507,-14.76208 -84.12476,-6.80963 -146.7743,-12.5219 -379.65318,-34.61612 -88.77545,-8.42251 -145.25099,-13.62388 -200.59413,-18.47464 -14.44237,-1.26585 -26.39003,-2.43272 -26.55033,-2.59302 -0.1603,-0.16031 4.16486,-1.4743 9.61147,-2.91998 83.05538,-22.04526 151.16582,-45.42426 194.41161,-66.73207 49.41519,-24.34756 72.13873,-46.76214 72.13873,-71.15789 0,-8.8365 2.38647,-19.59393 5.94646,-26.804748 13.44415,-27.231355 51.92871,-35.12298 128.15758,-26.279932 26.67586,3.094573 55.9466,7.587685 135.11056,20.73971 129.40571,21.49901 196.2885,30.57605 272.2883,36.95375 53.0835,4.45462 87.6562,6.04633 151.2139,6.96182 30.2659,0.43596 55.1329,0.82378 55.2601,0.86183 0.1271,0.038 0.2262,21.19057 0.2201,47.0056 l -0.011,46.93641 -24.2665,12.2399 c -70.9443,35.78418 -114.247,62.5718 -140.0182,86.6174 -6.4837,6.0495 -7.9783,7.01906 -10.6359,6.8992 -1.7006,-0.0767 -10.1671,-0.47051 -18.8145,-0.87514 z"
       id="path855"
       transform="translate(285,41)" />
    <path
       style="fill:#fcc433;fill-opacity:0;stroke-width:0"
       d="m 1139.606,333.99809 c -65.5433,-3.06686 -140.01801,-7.97897 -223.81507,-14.76208 -84.12476,-6.80963 -146.7743,-12.5219 -379.65318,-34.61612 -88.77545,-8.42251 -145.25099,-13.62388 -200.59413,-18.47464 -14.44237,-1.26585 -26.39003,-2.43272 -26.55033,-2.59302 -0.1603,-0.16031 4.16486,-1.4743 9.61147,-2.91998 83.05538,-22.04526 151.16582,-45.42426 194.41161,-66.73207 49.41519,-24.34756 72.13873,-46.76214 72.13873,-71.15789 0,-8.8365 2.38647,-19.59393 5.94646,-26.804748 13.44415,-27.231355 51.92871,-35.12298 128.15758,-26.279932 26.67586,3.094573 55.9466,7.587685 135.11056,20.73971 129.40571,21.49901 196.2885,30.57605 272.2883,36.95375 53.0835,4.45462 87.6562,6.04633 151.2139,6.96182 30.2659,0.43596 55.1329,0.82378 55.2601,0.86183 0.1271,0.038 0.2262,21.19057 0.2201,47.0056 l -0.011,46.93641 -24.2665,12.2399 c -70.9443,35.78418 -114.247,62.5718 -140.0182,86.6174 -6.4837,6.0495 -7.9783,7.01906 -10.6359,6.8992 -1.7006,-0.0767 -10.1671,-0.47051 -18.8145,-0.87514 z"
       id="path857"
       transform="translate(285,41)" />
    <path
       style="fill:#fcc433;fill-opacity:0;stroke-width:0"
       d="m 1139.606,333.99809 c -65.5433,-3.06686 -140.01801,-7.97897 -223.81507,-14.76208 -84.12476,-6.80963 -146.7743,-12.5219 -379.65318,-34.61612 -88.77545,-8.42251 -145.25099,-13.62388 -200.59413,-18.47464 -14.44237,-1.26585 -26.39003,-2.43272 -26.55033,-2.59302 -0.1603,-0.16031 4.16486,-1.4743 9.61147,-2.91998 83.05538,-22.04526 151.16582,-45.42426 194.41161,-66.73207 49.41519,-24.34756 72.13873,-46.76214 72.13873,-71.15789 0,-8.8365 2.38647,-19.59393 5.94646,-26.804748 13.44415,-27.231355 51.92871,-35.12298 128.15758,-26.279932 26.67586,3.094573 55.9466,7.587685 135.11056,20.73971 129.40571,21.49901 196.2885,30.57605 272.2883,36.95375 53.0835,4.45462 87.6562,6.04633 151.2139,6.96182 30.2659,0.43596 55.1329,0.82378 55.2601,0.86183 0.1271,0.038 0.2262,21.19057 0.2201,47.0056 l -0.011,46.93641 -24.2665,12.2399 c -70.9443,35.78418 -114.247,62.5718 -140.0182,86.6174 -6.4837,6.0495 -7.9783,7.01906 -10.6359,6.8992 -1.7006,-0.0767 -10.1671,-0.47051 -18.8145,-0.87514 z"
       id="path859"
       transform="translate(285,41)" />
    <path
       style="fill:#fcc433;fill-opacity:0;stroke-width:0"
       d="m 295.67533,262.81647 c -9.96779,-1.0581 -87.20875,-6.9757 -119.30636,-9.14033 -83.436339,-5.62687 -120.946147,-7.21621 -197.919076,-8.38615 -31.283237,-0.47549 -63.537573,-1.30489 -71.676301,-1.84312 -93.377623,-6.1752 -152.652683,-22.30655 -178.619713,-48.61027 -7.9009,-8.00334 -11.617,-15.78063 -12.17901,-25.48898 -0.90431,-15.62156 5.04275,-27.51851 22.38384,-44.77826 17.07601,-16.99592 33.77702,-28.145104 65.75592,-43.897034 C -149.99651,58.068734 -90.417908,39.080261 -22.012534,25.256799 107.62985,-0.94153238 249.32885,-5.5382944 506.54238,8.1103035 c 33.64609,1.7853729 80.19637,4.5549335 201.15607,11.9680015 217.21914,13.312373 293.42675,15.852829 505.20235,16.84141 l 120.4624,0.562326 v 48.418502 48.418497 l -32.1387,-0.006 C 1221.2443,134.2962 1140.053,129.59991 1060.5308,120.39035 996.63801,112.99084 951.91708,106.36934 842.26492,88.073257 727.60606,68.941789 695.55787,65.086512 660.06839,66.155716 c -24.3667,0.734105 -39.18879,3.876201 -51.49275,10.915815 -6.4108,3.667886 -13.895,11.186489 -17.22426,17.30344 -3.23206,5.938359 -6.19473,17.469849 -6.20164,24.138369 -0.003,2.84349 -0.41109,7.66709 -0.90699,10.71911 -5.75571,35.42399 -66.19482,70.55753 -185.90846,108.0695 -30.16377,9.45174 -91.49792,26.61016 -94.2758,26.37395 -0.79571,-0.0676 -4.56813,-0.45435 -8.38316,-0.85932 z"
       id="path861"
       transform="translate(285,41)" />
  </g>
  <path
     style="fill:#000000;fill-opacity:0;stroke-width:0"
     d="M 1140.819,334.06609 C 1008.7957,327.98027 891.03479,318.3632 542.23661,285.18227 494.27773,280.61996 424.86523,274.17959 387.98661,270.87032 351.108,267.56104 318.0213,264.57298 314.4606,264.23018 l -6.47399,-0.62327 9.71099,-2.66466 c 94.5909,-25.95546 151.35097,-45.49044 195.60693,-67.32159 38.55606,-19.01943 59.34106,-35.5988 68.22034,-54.41668 2.26143,-4.79264 2.88292,-7.62568 3.4989,-15.94949 1.4731,-19.90649 4.86356,-29.068838 14.21414,-38.412095 14.79874,-14.787173 42.18229,-20.591138 85.49418,-18.120559 35.03377,1.998382 63.23824,5.933098 170.30655,23.758926 130.44891,21.718468 191.72996,30.019098 272.83236,36.955618 51.7746,4.42817 86.5288,5.95401 158.1503,6.94339 64.0774,0.88516 87.3407,1.79622 109.1329,4.274 39.9439,4.54159 54.9641,12.02154 48.6504,24.22742 -2.1372,4.13167 -11.7175,12.6097 -21.4492,18.98113 -13.8419,9.06254 -30.9976,18.18962 -87.7792,46.69973 -81.4362,40.8892 -112.1252,58.27242 -142.8902,80.93758 -9.6896,7.13856 -23.0045,18.24766 -27.225,22.71481 -1.8,1.90519 -3.5161,2.82836 -5.0867,2.73645 -1.3037,-0.0763 -9.6536,-0.47446 -18.5553,-0.8848 z"
     id="path843" />
  <path
     style="fill:#000000;fill-opacity:0;stroke-width:0"
     d="M 1140.819,334.06609 C 1008.7957,327.98027 891.03479,318.3632 542.23661,285.18227 494.27773,280.61996 424.86523,274.17959 387.98661,270.87032 351.108,267.56104 318.0213,264.57298 314.4606,264.23018 l -6.47399,-0.62327 9.71099,-2.66466 c 94.5909,-25.95546 151.35097,-45.49044 195.60693,-67.32159 38.55606,-19.01943 59.34106,-35.5988 68.22034,-54.41668 2.26143,-4.79264 2.88292,-7.62568 3.4989,-15.94949 1.4731,-19.90649 4.86356,-29.068838 14.21414,-38.412095 14.79874,-14.787173 42.18229,-20.591138 85.49418,-18.120559 35.03377,1.998382 63.23824,5.933098 170.30655,23.758926 130.44891,21.718468 191.72996,30.019098 272.83236,36.955618 51.7746,4.42817 86.5288,5.95401 158.1503,6.94339 64.0774,0.88516 87.3407,1.79622 109.1329,4.274 39.9439,4.54159 54.9641,12.02154 48.6504,24.22742 -2.1372,4.13167 -11.7175,12.6097 -21.4492,18.98113 -13.8419,9.06254 -30.9976,18.18962 -87.7792,46.69973 -81.4362,40.8892 -112.1252,58.27242 -142.8902,80.93758 -9.6896,7.13856 -23.0045,18.24766 -27.225,22.71481 -1.8,1.90519 -3.5161,2.82836 -5.0867,2.73645 -1.3037,-0.0763 -9.6536,-0.47446 -18.5553,-0.8848 z"
     id="path845" />
  <path
     style="fill:#800000;fill-opacity:0;stroke-width:0"
     d="M 1140.819,334.06609 C 1008.7957,327.98027 891.03479,318.3632 542.23661,285.18227 494.27773,280.61996 424.86523,274.17959 387.98661,270.87032 351.108,267.56104 318.0213,264.57298 314.4606,264.23018 l -6.47399,-0.62327 9.71099,-2.66466 c 94.5909,-25.95546 151.35097,-45.49044 195.60693,-67.32159 38.55606,-19.01943 59.34106,-35.5988 68.22034,-54.41668 2.26143,-4.79264 2.88292,-7.62568 3.4989,-15.94949 1.4731,-19.90649 4.86356,-29.068838 14.21414,-38.412095 14.79874,-14.787173 42.18229,-20.591138 85.49418,-18.120559 35.03377,1.998382 63.23824,5.933098 170.30655,23.758926 130.44891,21.718468 191.72996,30.019098 272.83236,36.955618 51.7746,4.42817 86.5288,5.95401 158.1503,6.94339 64.0774,0.88516 87.3407,1.79622 109.1329,4.274 39.9439,4.54159 54.9641,12.02154 48.6504,24.22742 -2.1372,4.13167 -11.7175,12.6097 -21.4492,18.98113 -13.8419,9.06254 -30.9976,18.18962 -87.7792,46.69973 -81.4362,40.8892 -112.1252,58.27242 -142.8902,80.93758 -9.6896,7.13856 -23.0045,18.24766 -27.225,22.71481 -1.8,1.90519 -3.5161,2.82836 -5.0867,2.73645 -1.3037,-0.0763 -9.6536,-0.47446 -18.5553,-0.8848 z"
     id="path847" />
  <path
     style="fill:#fcc433;fill-opacity:0;stroke-width:0"
     d="M 1140.819,334.06609 C 1008.7957,327.98027 891.03479,318.3632 542.23661,285.18227 494.27773,280.61996 424.86523,274.17959 387.98661,270.87032 351.108,267.56104 318.0213,264.57298 314.4606,264.23018 l -6.47399,-0.62327 9.71099,-2.66466 c 94.5909,-25.95546 151.35097,-45.49044 195.60693,-67.32159 38.55606,-19.01943 59.34106,-35.5988 68.22034,-54.41668 2.26143,-4.79264 2.88292,-7.62568 3.4989,-15.94949 1.4731,-19.90649 4.86356,-29.068838 14.21414,-38.412095 14.79874,-14.787173 42.18229,-20.591138 85.49418,-18.120559 35.03377,1.998382 63.23824,5.933098 170.30655,23.758926 130.44891,21.718468 191.72996,30.019098 272.83236,36.955618 51.7746,4.42817 86.5288,5.95401 158.1503,6.94339 64.0774,0.88516 87.3407,1.79622 109.1329,4.274 39.9439,4.54159 54.9641,12.02154 48.6504,24.22742 -2.1372,4.13167 -11.7175,12.6097 -21.4492,18.98113 -13.8419,9.06254 -30.9976,18.18962 -87.7792,46.69973 -81.4362,40.8892 -112.1252,58.27242 -142.8902,80.93758 -9.6896,7.13856 -23.0045,18.24766 -27.225,22.71481 -1.8,1.90519 -3.5161,2.82836 -5.0867,2.73645 -1.3037,-0.0763 -9.6536,-0.47446 -18.5553,-0.8848 z"
     id="path849" />
  <path
     style="fill:#fcc433;fill-opacity:0;stroke-width:0"
     d="m 1148.7202,334.37033 c -131.0088,-5.66755 -253.59919,-15.61114 -607.36853,-49.26497 -47.95888,-4.56231 -117.37138,-10.99992 -154.25,-14.30583 -36.87861,-3.3059 -69.75722,-6.28274 -73.06358,-6.61522 l -6.01156,-0.60448 11.56069,-3.17772 c 98.10726,-26.96701 153.0643,-46.089 198.21416,-68.96751 35.11798,-17.79512 55.28389,-34.33694 63.76093,-52.30221 2.30126,-4.87704 2.87645,-7.58025 3.54226,-16.6474 0.96573,-13.15149 2.08875,-18.32815 5.59831,-25.806005 5.33308,-11.363276 15.06374,-19.360412 29.68322,-24.395153 13.04457,-4.492362 23.64435,-5.803417 46.94679,-5.806705 37.16738,-0.0052 62.84135,3.233914 178.49711,22.520109 135.10524,22.529494 196.1675,30.919324 275.6069,37.867854 56.307,4.92514 88.9007,6.41759 162.7746,7.45337 79.8992,1.12025 109.2558,2.76602 132.2553,7.41438 23.8095,4.81208 32.3772,11.40626 27.3777,21.07144 -2.1381,4.13344 -11.7198,12.61129 -21.4491,18.97827 -14.3306,9.37801 -25.68,15.42757 -83.6174,44.57049 -101.2293,50.919 -139.0166,73.55247 -169.8744,101.74947 -6.5018,5.94119 -7.9933,6.88478 -10.6359,6.72903 -1.6904,-0.0996 -5.9868,-0.30717 -9.5475,-0.46121 z"
     id="path851" />
</svg>
