<?xml version="1.0" encoding="UTF-8" standalone="no"?>
<svg
   xmlns:dc="http://purl.org/dc/elements/1.1/"
   xmlns:cc="http://creativecommons.org/ns#"
   xmlns:rdf="http://www.w3.org/1999/02/22-rdf-syntax-ns#"
   xmlns:svg="http://www.w3.org/2000/svg"
   xmlns="http://www.w3.org/2000/svg"
   xmlns:sodipodi="http://sodipodi.sourceforge.net/DTD/sodipodi-0.dtd"
   xmlns:inkscape="http://www.inkscape.org/namespaces/inkscape"
   width="1200"
   height="628"
   viewBox="0 0 1200 628"
   fill="none"
   version="1.1"
   id="svg40"
   sodipodi:docname="logo_meta_image.svg"
   inkscape:version="1.0.1 (3bc2e813f5, 2020-09-07)"
   inkscape:export-filename="/home/mfalce/Documents/pro/projets/oh_ce_cours_formation/site/site_oh_ce_cours_hugo/themes/oh_ce_cours/static/imgs/logo.png"
   inkscape:export-xdpi="302"
   inkscape:export-ydpi="302">
  <metadata
     id="metadata46">
    <rdf:RDF>
      <cc:Work
         rdf:about="">
        <dc:format>image/svg+xml</dc:format>
        <dc:type
           rdf:resource="http://purl.org/dc/dcmitype/StillImage" />
        <dc:title></dc:title>
      </cc:Work>
    </rdf:RDF>
  </metadata>
  <defs
     id="defs44" />
  <sodipodi:namedview
     pagecolor="#ffffff"
     bordercolor="#666666"
     borderopacity="1"
     objecttolerance="10"
     gridtolerance="10"
     guidetolerance="10"
     inkscape:pageopacity="0"
     inkscape:pageshadow="2"
     inkscape:window-width="1920"
     inkscape:window-height="1016"
     id="namedview42"
     showgrid="false"
     inkscape:zoom="0.37207383"
     inkscape:cx="316.92202"
     inkscape:cy="618.90357"
     inkscape:window-x="0"
     inkscape:window-y="27"
     inkscape:window-maximized="1"
     inkscape:current-layer="svg40"
     inkscape:document-rotation="0" />
  <g
     id="g880"
     transform="matrix(3.9043701,0,0,3.9043701,233.32605,34.525343)">
    <path
       d="M 24.2165,37.8457 C -6.53947,53.9009 10.992,100.293 27.4843,123.833 l -0.0035,0.003 c 0,0 -10.5991,16.788 -27.4808,8.585 13.3545,17.259 30.797,10.252 41.7404,2.871 29.7951,14.484 90.6696,5.142 121.5596,-4.265 35.15,-10.703 28.134,-82.4548 6.362,-105.3825 C 136.431,-9.35117 58.2873,20.0605 24.2172,37.8457 Z"
       fill="#fdc417"
       id="path2" />
    <path
       d="m 54.972,107.071 c 0.3267,-0.028 0.4891,0.157 0.4877,0.553 -6e-4,0.164 -0.0364,0.365 -0.1075,0.605 -0.3537,1.01 -0.7422,1.965 -1.1656,2.865 -0.4001,0.898 -0.7764,1.689 -1.1289,2.372 -0.423,0.807 -0.8226,1.553 -1.1985,2.239 -0.4932,0.859 -1.0445,1.665 -1.654,2.417 -0.6094,0.729 -1.2652,1.381 -1.9674,1.955 -0.7021,0.55 -1.462,1 -2.28,1.351 -0.7947,0.372 -1.6474,0.597 -2.5577,0.675 -0.6769,0.058 -1.4117,0.005 -2.2044,-0.16 -0.7928,-0.165 -1.5382,-0.533 -2.2361,-1.103 -0.6746,-0.572 -1.2433,-1.386 -1.706,-2.443 -0.4627,-1.08 -0.6909,-2.496 -0.6844,-4.247 0.0052,-1.4 0.291,-2.953 0.8574,-4.659 0.5665,-1.728 1.483,-3.452 2.7494,-5.171 0.8209,-1.121 1.641,-2.055 2.4604,-2.802 0.8429,-0.773 1.6386,-1.401 2.3871,-1.8858 0.7719,-0.4865 1.4849,-0.8396 2.1391,-1.0592 0.6542,-0.2196 1.2264,-0.3506 1.7166,-0.3928 0.3266,-0.0281 0.6532,0.0138 0.9796,0.1257 0.3262,0.0887 0.6172,0.2619 0.8731,0.5199 0.2557,0.258 0.4645,0.6134 0.6261,1.0662 0.1618,0.429 0.2416,0.959 0.2393,1.59 -0.0026,0.7 -0.1104,1.432 -0.3231,2.197 -0.1896,0.74 -0.4957,1.478 -0.9182,2.215 -0.3286,0.565 -0.6921,1.039 -1.0904,1.423 -0.3748,0.383 -0.7492,0.695 -1.1234,0.937 -0.3508,0.24 -0.6782,0.42 -0.9821,0.54 -0.2804,0.094 -0.5024,0.148 -0.6657,0.162 -0.4902,0.042 -0.7344,-0.135 -0.7329,-0.532 9e-4,-0.257 0.0724,-0.659 0.2145,-1.208 0.1421,-0.549 0.2145,-1.186 0.2172,-1.909 6e-4,-0.164 -0.0102,-0.373 -0.0323,-0.627 0.001,-0.281 -0.0446,-0.545 -0.1369,-0.794 -0.0693,-0.25 -0.1851,-0.462 -0.3475,-0.635 -0.1627,-0.196 -0.3842,-0.282 -0.6642,-0.258 -0.3266,0.028 -0.6889,0.223 -1.0871,0.584 -0.3746,0.336 -0.7382,0.845 -1.0908,1.529 -0.5404,1.003 -0.906,2.038 -1.0966,3.104 -0.1674,1.065 -0.2527,2.017 -0.2558,2.858 -0.0027,0.723 0.0644,1.511 0.2013,2.362 0.1603,0.85 0.4023,1.646 0.7262,2.388 0.3472,0.717 0.8001,1.308 1.3585,1.773 0.5584,0.442 1.2461,0.628 2.0631,0.558 1.0504,-0.091 1.9853,-0.51 2.8047,-1.257 0.8429,-0.772 1.593,-1.677 2.2502,-2.714 0.6807,-1.062 1.2797,-2.151 1.7972,-3.269 0.5175,-1.118 0.9645,-2.079 1.3409,-2.881 0.2823,-0.608 0.5984,-0.927 0.9485,-0.957 z"
       fill="#000000"
       id="path4" />
    <path
       d="m 71.4631,105.651 c 0.1401,-0.012 0.2565,0.025 0.3494,0.11 0.1164,0.084 0.1742,0.219 0.1735,0.406 -7e-4,0.186 -0.0362,0.364 -0.1067,0.534 -0.3537,1.01 -0.7422,1.965 -1.1657,2.865 -0.4,0.898 -0.7763,1.7 -1.129,2.408 -0.4229,0.806 -0.8342,1.565 -1.2335,2.276 -0.493,0.812 -1.0443,1.595 -1.6538,2.347 -0.5861,0.727 -1.2302,1.39 -1.9324,1.987 -0.7022,0.573 -1.4625,1.047 -2.2805,1.421 -0.8181,0.374 -1.6822,0.6 -2.5926,0.678 -0.6769,0.058 -1.4234,0.006 -2.2395,-0.157 -0.7928,-0.165 -1.5382,-0.533 -2.2361,-1.103 -0.6745,-0.572 -1.2315,-1.387 -1.6709,-2.446 -0.4628,-1.057 -0.691,-2.449 -0.6846,-4.176 0.0029,-0.794 0.0877,-1.606 0.2542,-2.437 0.1432,-0.829 0.3561,-1.629 0.639,-2.4 0.2595,-0.769 0.5539,-1.495 0.8831,-2.177 0.3525,-0.683 0.7048,-1.285 1.0569,-1.806 0.61,-0.892 1.2547,-1.729 1.9343,-2.511 0.6797,-0.805 1.359,-1.5056 2.0379,-2.1007 0.7023,-0.6205 1.3808,-1.1106 2.0355,-1.4703 0.6547,-0.3597 1.2622,-0.5636 1.8225,-0.6119 0.887,-0.0763 1.6559,0.1959 2.307,0.8165 0.6744,0.6187 1.0092,1.5582 1.0045,2.8184 -0.004,1.097 -0.2883,2.265 -0.8529,3.504 -0.5645,1.215 -1.2691,2.419 -2.1135,3.612 -0.8445,1.193 -1.7471,2.309 -2.7077,3.348 -0.9606,1.04 -1.8388,1.909 -2.6348,2.607 0.4163,1.014 0.9503,1.738 1.602,2.172 0.6518,0.434 1.3162,0.622 1.9931,0.564 1.0504,-0.091 1.9852,-0.509 2.8047,-1.257 0.8428,-0.749 1.5929,-1.642 2.2501,-2.678 0.6805,-1.039 1.2679,-2.116 1.7621,-3.232 0.5175,-1.118 0.9762,-2.103 1.376,-2.954 0.1412,-0.292 0.282,-0.514 0.4226,-0.666 0.1407,-0.176 0.316,-0.272 0.5259,-0.29 z m -13.6264,2.853 c -0.0051,1.378 0.0955,2.582 0.3015,3.615 0.4686,-0.507 0.9374,-1.073 1.4064,-1.697 0.4924,-0.649 0.9265,-1.304 1.3023,-1.967 0.3991,-0.664 0.7167,-1.333 0.9526,-2.007 0.2592,-0.675 0.3898,-1.317 0.3921,-1.924 0.0035,-0.933 -0.1923,-1.64 -0.5872,-2.119 -0.3949,-0.48 -0.7907,-0.702 -1.1875,-0.668 -0.2334,0.02 -0.5023,0.195 -0.8069,0.524 -0.2812,0.305 -0.5629,0.749 -0.8451,1.333 -0.2588,0.583 -0.4832,1.29 -0.673,2.123 -0.1664,0.808 -0.2515,1.737 -0.2554,2.787 z"
       fill="#000000"
       id="path6" />
    <path
       d="m 100.874,103.119 c 0.327,-0.028 0.489,0.157 0.488,0.553 -10e-4,0.164 -0.037,0.365 -0.108,0.605 -0.354,1.01 -0.742,1.965 -1.166,2.865 -0.3998,0.898 -0.7759,1.689 -1.1285,2.372 -0.423,0.807 -0.8225,1.553 -1.1984,2.239 -0.4933,0.859 -1.0446,1.665 -1.6541,2.417 -0.6094,0.729 -1.2652,1.381 -1.9674,1.955 -0.702,0.55 -1.462,1.001 -2.2801,1.351 -0.7947,0.372 -1.6472,0.597 -2.5575,0.675 -0.677,0.058 -1.4117,0.005 -2.2045,-0.16 -0.7927,-0.165 -1.5381,-0.533 -2.236,-1.103 -0.6746,-0.572 -1.2433,-1.386 -1.7061,-2.443 -0.4626,-1.08 -0.6908,-2.496 -0.6843,-4.246 0.0052,-1.401 0.291,-2.954 0.8574,-4.659 0.5664,-1.729 1.4829,-3.453 2.7494,-5.172 0.8208,-1.121 1.6409,-2.055 2.4604,-2.8023 0.8429,-0.7725 1.6386,-1.401 2.3871,-1.8855 0.7718,-0.4864 1.4849,-0.8395 2.139,-1.0591 0.6542,-0.2197 1.2264,-0.3506 1.7166,-0.3928 0.3267,-0.0281 0.6532,0.0138 0.9797,0.1257 0.3261,0.0886 0.6172,0.2619 0.8731,0.5199 0.2557,0.258 0.4644,0.6134 0.626,1.0662 0.1619,0.4294 0.2417,0.9592 0.2393,1.5895 -0.0026,0.7002 -0.1103,1.4329 -0.3231,2.1979 -0.1896,0.7395 -0.4956,1.4775 -0.9182,2.2145 -0.3286,0.565 -0.6921,1.039 -1.0904,1.424 -0.3747,0.382 -0.7491,0.694 -1.1233,0.936 -0.3509,0.24 -0.6784,0.42 -0.9823,0.54 -0.2804,0.094 -0.5023,0.148 -0.6656,0.162 -0.4902,0.042 -0.7345,-0.135 -0.7331,-0.532 0.001,-0.257 0.0725,-0.659 0.2146,-1.208 0.1421,-0.549 0.2145,-1.185 0.2171,-1.909 6e-4,-0.163 -0.01,-0.373 -0.0321,-0.627 0.0011,-0.28 -0.0445,-0.545 -0.1368,-0.7936 -0.0689,-0.2508 -0.1849,-0.4625 -0.3477,-0.6351 -0.1627,-0.196 -0.384,-0.282 -0.664,-0.2579 -0.3267,0.0281 -0.6891,0.2227 -1.0873,0.5836 -0.3746,0.3356 -0.7381,0.845 -1.0906,1.529 -0.5405,1.003 -0.9061,2.038 -1.0967,3.105 -0.1674,1.064 -0.2527,2.016 -0.2558,2.857 -0.0027,0.723 0.0644,1.511 0.2013,2.362 0.1603,0.85 0.4024,1.646 0.7262,2.388 0.3473,0.717 0.8001,1.308 1.3585,1.773 0.5584,0.442 1.246,0.628 2.063,0.558 1.0504,-0.091 1.9854,-0.509 2.8049,-1.257 0.8429,-0.772 1.5928,-1.677 2.25,-2.713 0.6807,-1.062 1.2799,-2.152 1.7974,-3.27 0.5175,-1.118 0.9643,-2.078 1.3406,-2.881 0.2823,-0.608 0.5983,-0.926 0.9483,-0.957 z"
       fill="#000000"
       id="path8" />
    <path
       d="m 107.521,113.327 c 0.561,-0.048 1.051,-0.277 1.473,-0.686 0.421,-0.41 0.773,-0.93 1.056,-1.561 0.306,-0.633 0.553,-1.355 0.743,-2.164 0.19,-0.834 0.333,-1.686 0.429,-2.558 -0.675,-0.408 -1.338,-0.958 -1.989,-1.648 -0.627,-0.693 -1.196,-1.554 -1.705,-2.584 -0.301,-0.604 -0.521,-1.227 -0.658,-1.868 -0.138,-0.6652 -0.205,-1.301 -0.203,-1.9079 0.003,-0.7703 0.11,-1.503 0.323,-2.1979 0.212,-0.695 0.518,-1.3047 0.917,-1.8291 0.422,-0.5263 0.937,-0.9557 1.545,-1.288 0.608,-0.3557 1.308,-0.5677 2.102,-0.636 1.004,-0.0864 1.82,0.0884 2.448,0.5243 0.652,0.4106 1.163,0.9733 1.534,1.6881 0.371,0.6915 0.625,1.463 0.761,2.3147 0.161,0.8495 0.239,1.6478 0.237,2.3947 -0.004,0.9801 -0.078,1.9901 -0.222,3.0291 -0.12,1.037 -0.322,2.093 -0.606,3.168 0.863,-0.145 1.635,-0.444 2.313,-0.9 0.678,-0.478 1.253,-1.228 1.723,-2.248 0.283,-0.608 0.576,-0.925 0.879,-0.951 0.163,-0.014 0.303,0.021 0.42,0.104 0.139,0.082 0.209,0.227 0.208,0.437 0,0.164 -0.036,0.33 -0.106,0.499 -0.472,1.371 -1.258,2.489 -2.358,3.354 -1.077,0.862 -2.28,1.351 -3.61,1.465 -0.402,1.178 -0.896,2.306 -1.483,3.383 -0.564,1.052 -1.233,1.996 -2.006,2.833 -0.773,0.837 -1.651,1.519 -2.633,2.047 -0.982,0.528 -2.068,0.843 -3.258,0.945 -0.63,0.054 -1.342,0.022 -2.135,-0.096 -0.793,-0.119 -1.538,-0.439 -2.237,-0.963 -0.697,-0.546 -1.278,-1.336 -1.7406,-2.37 -0.4861,-1.055 -0.7259,-2.481 -0.7192,-4.278 0.0054,-1.471 0.2912,-3.047 0.8575,-4.729 0.5433,-1.681 1.4593,-3.381 2.7493,-5.1023 0.492,-0.6491 0.937,-1.1191 1.335,-1.41 0.421,-0.2929 0.76,-0.4504 1.017,-0.4725 0.513,-0.0442 0.769,0.2488 0.767,0.879 -10e-4,0.2801 -0.096,0.6383 -0.285,1.0745 -0.188,0.4363 -0.389,0.9903 -0.601,1.6623 -0.212,0.671 -0.414,1.47 -0.604,2.397 -0.19,0.903 -0.287,1.961 -0.292,3.175 -0.008,2.334 0.311,4.127 0.96,5.378 0.672,1.225 1.557,1.791 2.654,1.696 z m 3.925,-10.628 c 0.009,-2.381 -0.207,-4.0658 -0.646,-5.0547 -0.44,-1.0122 -0.929,-1.3902 -1.466,-1.1339 -0.234,0.1135 -0.375,0.3356 -0.423,0.6664 -0.024,0.3288 -0.037,0.6449 -0.038,0.9483 -0.002,0.5136 0.066,1.0444 0.204,1.5926 0.138,0.5483 0.311,1.0933 0.519,1.6353 0.231,0.54 0.498,1.054 0.799,1.541 0.325,0.462 0.662,0.889 1.011,1.279 0.024,-0.259 0.036,-0.505 0.037,-0.739 0.001,-0.233 0.002,-0.478 0.003,-0.735 z"
       fill="#000000"
       id="path10" />
    <path
       d="m 143.656,100.521 c -0.755,2.142 -1.439,4.033 -2.052,5.672 -0.589,1.614 -1.189,2.984 -1.8,4.11 -0.611,1.103 -1.279,1.954 -2.005,2.553 -0.702,0.597 -1.531,0.937 -2.488,1.019 -0.817,0.07 -1.505,-0.104 -2.064,-0.522 -0.558,-0.442 -0.999,-1.011 -1.323,-1.706 -0.324,-0.719 -0.555,-1.516 -0.692,-2.391 -0.136,-0.875 -0.203,-1.721 -0.2,-2.538 0.002,-0.607 0.004,-1.19 0.006,-1.751 0.002,-0.56 0.028,-1.087 0.076,-1.581 -0.521,2.121 -1.053,3.906 -1.595,5.352 -0.518,1.445 -1.048,2.611 -1.588,3.497 -0.54,0.887 -1.114,1.543 -1.722,1.968 -0.585,0.401 -1.204,0.629 -1.858,0.685 -0.49,0.043 -0.991,-0.043 -1.504,-0.255 -0.489,-0.191 -0.942,-0.619 -1.36,-1.283 -0.418,-0.664 -0.764,-1.615 -1.04,-2.851 -0.252,-1.262 -0.374,-2.931 -0.366,-5.009 0.002,-0.513 0.016,-1.133 0.042,-1.858 0.025,-0.749 0.075,-1.524 0.148,-2.323 0.073,-0.823 0.158,-1.6239 0.254,-2.4023 0.12,-0.8037 0.262,-1.5277 0.428,-2.172 0.072,-0.2861 0.166,-0.6326 0.284,-1.0395 0.119,-0.4068 0.236,-0.6737 0.353,-0.8004 0.258,-0.2555 0.469,-0.4837 0.633,-0.6845 0.188,-0.2028 0.34,-0.3092 0.456,-0.3192 0.164,-0.0141 0.292,0.0448 0.385,0.1769 0.116,0.1066 0.232,0.155 0.349,0.1449 0.07,-0.006 0.199,-0.0754 0.386,-0.2082 0.21,-0.1348 0.433,-0.2823 0.667,-0.4424 0.234,-0.1602 0.456,-0.3076 0.666,-0.4425 0.234,-0.1368 0.398,-0.2092 0.491,-0.2172 0.28,-0.0241 0.419,0.2206 0.417,0.7341 0,0.1401 -0.012,0.3045 -0.036,0.4932 -0.024,0.1887 -0.06,0.4134 -0.108,0.6743 -0.215,1.5119 -0.372,2.9722 -0.471,4.3808 -0.075,1.383 -0.116,2.868 -0.122,4.456 -0.003,0.887 0.006,1.691 0.026,2.413 0.02,0.721 0.064,1.348 0.133,1.878 0.091,0.506 0.23,0.902 0.415,1.19 0.186,0.264 0.443,0.382 0.769,0.353 0.467,-0.04 0.9,-0.38 1.299,-1.021 0.399,-0.665 0.764,-1.501 1.094,-2.51 0.354,-1.01 0.685,-2.124 0.993,-3.34 0.308,-1.217 0.604,-2.397 0.888,-3.5419 0.285,-1.1679 0.569,-2.2424 0.852,-3.2236 0.307,-0.9831 0.613,-1.7328 0.918,-2.2491 0.306,-0.493 0.704,-0.9123 1.195,-1.2579 0.515,-0.3476 0.994,-0.5406 1.437,-0.5788 0.514,-0.0441 0.875,0.1231 1.084,0.5019 0.232,0.3533 0.346,1.0786 0.341,2.1757 -0.002,0.7936 -0.029,1.5426 -0.078,2.2468 -0.05,0.7043 -0.099,1.432 -0.148,2.183 -0.05,0.7509 -0.099,1.5599 -0.149,2.4279 -0.05,0.844 -0.077,1.792 -0.081,2.842 -0.003,0.957 0.029,1.736 0.096,2.337 0.091,0.576 0.206,1.021 0.345,1.335 0.139,0.315 0.29,0.524 0.453,0.626 0.163,0.103 0.326,0.147 0.49,0.133 0.396,-0.034 0.771,-0.241 1.122,-0.621 0.351,-0.381 0.703,-0.913 1.056,-1.596 0.376,-0.709 0.752,-1.558 1.129,-2.548 0.401,-0.991 0.837,-2.113 1.308,-3.367 0.118,-0.29 0.259,-0.5126 0.423,-0.6667 0.164,-0.1775 0.339,-0.2743 0.526,-0.2903 0.14,-0.0121 0.256,0.0362 0.349,0.1449 0.116,0.0834 0.174,0.2184 0.173,0.4051 0,0.163 -0.036,0.33 -0.107,0.499 z"
       fill="#000000"
       id="path12" />
    <path
       d="m 159.376,99.1677 c -0.543,1.8673 -1.098,3.5943 -1.664,5.1833 -0.566,1.589 -1.166,2.971 -1.8,4.145 -0.635,1.175 -1.338,2.111 -2.111,2.807 -0.749,0.695 -1.602,1.083 -2.559,1.165 -1.168,0.101 -2.111,-0.401 -2.83,-1.506 -0.696,-1.13 -1.04,-2.664 -1.033,-4.601 0.003,-0.841 0.041,-1.637 0.114,-2.39 0.096,-0.755 0.192,-1.487 0.289,-2.195 0.119,-0.711 0.215,-1.396 0.288,-2.0552 0.095,-0.6616 0.144,-1.3075 0.147,-1.9377 0.002,-0.677 -0.078,-1.1134 -0.241,-1.3094 -0.162,-0.196 -0.372,-0.283 -0.629,-0.2609 -0.047,0.0041 -0.093,0.0198 -0.14,0.0472 -0.047,0.004 -0.14,0.0238 -0.28,0.0592 -0.117,0.0101 -0.304,0.0495 -0.561,0.1183 -0.233,0.0435 -0.56,0.1066 -0.981,0.1894 -0.258,0.5823 -0.47,1.0788 -0.635,1.4897 -0.165,0.3875 -0.306,0.7264 -0.424,1.0165 -0.118,0.2902 -0.224,0.5443 -0.318,0.7624 -0.07,0.1925 -0.141,0.3975 -0.212,0.6135 -0.189,0.459 -0.353,0.754 -0.493,0.882 -0.14,0.106 -0.304,0.166 -0.491,0.182 -0.14,0.013 -0.256,-0.036 -0.349,-0.144 -0.116,-0.107 -0.174,-0.265 -0.173,-0.476 0,-0.14 0.036,-0.306 0.106,-0.499 0.071,-0.216 0.154,-0.4796 0.249,-0.7911 0.117,-0.3369 0.236,-0.7554 0.354,-1.2556 0.142,-0.5023 0.284,-1.1212 0.427,-1.8569 -0.466,-0.1698 -0.861,-0.6259 -1.185,-1.3681 -0.347,-0.7635 -0.518,-1.6704 -0.514,-2.7208 0.003,-0.8637 0.158,-1.752 0.465,-2.6651 0.283,-0.9111 0.636,-1.7466 1.059,-2.5063 0.446,-0.7851 0.915,-1.4322 1.407,-1.9412 0.516,-0.5111 0.972,-0.7837 1.368,-0.8178 0.514,-0.0442 0.944,0.2337 1.292,0.8338 0.371,0.5748 0.556,1.259 0.553,2.0526 -0.002,0.4201 -0.05,0.856 -0.145,1.3075 -0.095,0.4282 -0.201,0.834 -0.319,1.2176 -0.095,0.3581 -0.189,0.6929 -0.284,1.0044 -0.094,0.2881 -0.142,0.5139 -0.142,0.6773 -0.001,0.21 0.08,0.308 0.244,0.294 0.117,-0.0101 0.327,-0.0865 0.631,-0.2293 l 1.718,-0.918 c 0.632,-0.311 1.169,-0.4856 1.612,-0.5238 0.747,-0.0643 1.237,0.127 1.468,0.5737 0.255,0.4448 0.381,1.1223 0.378,2.0326 -0.002,0.3968 -0.051,1.1011 -0.148,2.1128 -0.097,0.9884 -0.206,2.0945 -0.327,3.3183 -0.098,1.1985 -0.196,2.3974 -0.293,3.5954 -0.074,1.196 -0.113,2.168 -0.116,2.915 -0.003,0.817 0.077,1.417 0.239,1.8 0.185,0.357 0.57,0.511 1.153,0.46 0.42,-0.036 0.83,-0.316 1.228,-0.84 0.422,-0.527 0.821,-1.179 1.198,-1.958 0.376,-0.78 0.729,-1.627 1.059,-2.542 0.353,-0.917 0.672,-1.796 0.955,-2.637 0.212,-0.6017 0.517,-0.9196 0.913,-0.9537 0.374,-0.0322 0.56,0.1618 0.558,0.582 0,0.0701 -0.012,0.141 -0.035,0.213 0,0.0701 -0.012,0.1528 -0.035,0.2481 z"
       fill="#000000"
       id="path14" />
    <path
       d="m 168.489,105.138 0.492,-0.462 c 0.492,-0.486 1.113,-1.274 1.864,-2.366 0.774,-1.093 1.538,-2.6055 2.292,-4.5371 0.259,-0.6057 0.587,-0.9256 0.984,-0.9597 0.326,-0.0281 0.489,0.1445 0.487,0.518 0,0.14 -0.036,0.3181 -0.106,0.5342 -0.543,1.5634 -1.131,2.9096 -1.765,4.0366 -0.611,1.126 -1.245,2.091 -1.901,2.894 -0.657,0.803 -1.313,1.467 -1.968,1.99 -0.632,0.497 -1.228,0.887 -1.789,1.169 -0.61,0.962 -1.325,1.817 -2.145,2.564 -0.796,0.722 -1.731,1.129 -2.804,1.222 -0.701,0.06 -1.295,-0.04 -1.784,-0.302 -0.489,-0.261 -0.885,-0.6 -1.187,-1.018 -0.302,-0.417 -0.522,-0.876 -0.66,-1.378 -0.138,-0.525 -0.206,-0.997 -0.204,-1.417 0.003,-0.794 0.099,-1.514 0.288,-2.16 0.212,-0.649 0.459,-1.207 0.741,-1.674 0.282,-0.468 0.575,-0.82 0.879,-1.056 0.328,-0.261 0.596,-0.401 0.807,-0.419 0.28,-0.024 0.559,0.185 0.837,0.628 0.279,0.442 0.58,1.07 0.903,1.882 0.463,1.22 0.856,2.097 1.181,2.629 0.35,-0.077 0.689,-0.153 1.016,-0.228 0.326,-0.098 0.654,-0.22 0.981,-0.364 0.165,-0.341 0.248,-0.64 0.249,-0.897 0.001,-0.42 -0.114,-0.9 -0.345,-1.44 -0.231,-0.564 -0.533,-1.144 -0.904,-1.743 -0.347,-0.623 -0.742,-1.242 -1.183,-1.858 -0.441,-0.639 -0.882,-1.2306 -1.323,-1.776 -0.418,-0.5707 -0.813,-1.0851 -1.185,-1.5431 -0.371,-0.4814 -0.661,-0.8764 -0.87,-1.1851 -0.166,0.5509 -0.308,1.0298 -0.426,1.4366 -0.118,0.3835 -0.236,0.7203 -0.353,1.0105 -0.166,0.4809 -0.319,0.8091 -0.459,0.9845 -0.117,0.1506 -0.281,0.2346 -0.491,0.2526 -0.373,0.032 -0.559,-0.1738 -0.558,-0.6173 10e-4,-0.1634 0.025,-0.3171 0.072,-0.4612 0.189,-0.623 0.343,-1.173 0.462,-1.6498 0.142,-0.5023 0.26,-0.9208 0.354,-1.2556 0.095,-0.4048 0.178,-0.7503 0.249,-1.0365 -0.395,-0.456 -0.743,-0.986 -1.044,-1.5902 -0.324,-0.6254 -0.484,-1.44 -0.481,-2.4437 0.003,-0.7236 0.146,-1.5293 0.429,-2.4171 0.261,-0.9091 0.602,-1.7552 1.025,-2.5383 0.423,-0.8064 0.881,-1.4875 1.373,-2.0432 0.515,-0.5577 1.006,-0.8567 1.473,-0.8968 0.28,-0.0242 0.525,0.0481 0.734,0.2168 0.233,0.1433 0.419,0.349 0.558,0.617 0.162,0.266 0.278,0.5828 0.346,0.9502 0.092,0.3421 0.138,0.6883 0.136,1.0384 -0.003,0.7936 -0.146,1.7043 -0.43,2.7321 -0.023,0.0954 -0.059,0.2385 -0.106,0.4292 -0.024,0.1654 -0.036,0.3414 -0.037,0.5282 -0.002,0.6769 0.438,1.5841 1.32,2.7215 0.883,1.1375 1.986,2.4075 3.311,3.8102 0.628,0.6694 1.08,1.4005 1.357,2.1933 0.277,0.7695 0.414,1.6798 0.41,2.7298 -0.001,0.327 -0.038,0.692 -0.109,1.095 -0.071,0.379 -0.154,0.701 -0.249,0.966 z"
       fill="#000000"
       id="path16" />
    <path
       d="M 72.271,9.87963e-4 75.6088,77.3546 87.8313,74.0766 85.8781,28.8086 c 1.7459,-2.5747 4.3589,-4.3054 6.8419,-4.5238 3.5054,-0.3081 5.4262,1.1215 5.6292,5.8264 l 1.7548,40.6739 12.223,-3.2781 -1.688,-39.1055 c -0.358,-8.303 -5.025,-12.2582 -12.8238,-11.7857 -4.5331,0.2747 -9.3532,1.8181 -12.8269,6.2589 L 85.206,13.2182 84.6366,0.0276191 72.2714,0 Z M 126.142,0.323327 129.718,43.5517 139.754,41.6945 139.484,0.34032 126.142,0.326511 Z M 40.6987,4.46654 C 32.8834,4.56018 20.0409,7.07484 21.1574,32.9508 l 1.3116,30.3971 c 1.1122,25.7754 13.7499,25.3073 21.7688,23.1385 7.1978,-1.9466 20.215,-8.3284 19.2488,-30.7222 L 62.3336,29.0424 C 61.3369,5.94192 48.221,4.37658 40.6987,4.46654 Z m 0.415,9.62666 c 4.9759,-0.2103 7.5003,2.8261 7.936,12.9238 l 1.5458,35.826 c 0.4214,9.775 -1.8216,13.2498 -6.7551,14.4395 -5.0786,1.2247 -7.5796,-1.2451 -8.0214,-11.4844 L 34.1998,28.2705 C 33.7432,17.6931 35.9916,14.3084 41.1137,14.0932 Z M 135.023,48.738 c -4.649,0.9868 -7.472,3.5495 -7.262,8.4123 0.187,4.3416 3.235,5.8378 7.776,4.6104 4.782,-1.2927 7.535,-4.3379 7.365,-8.2686 -0.186,-4.2881 -3.084,-5.7716 -7.879,-4.7541 z"
       fill="#000000"
       id="path18" />
  </g>
</svg>
