<svg width="203" height="177" viewBox="0 0 203 177" fill="none" xmlns="http://www.w3.org/2000/svg">
<path d="M24.2165 37.8457C-6.53947 53.9009 10.992 100.293 27.4843 123.833L27.4808 123.836C27.4808 123.836 16.8817 140.624 0 132.421C13.3545 149.68 30.797 142.673 41.7404 135.292C71.5355 149.776 132.41 140.434 163.3 131.027C198.45 120.324 191.434 48.5722 169.662 25.6445C136.431 -9.35117 58.2873 20.0605 24.2172 37.8457H24.2165Z" fill="#FDC417"/>
<path d="M54.972 107.071C55.2987 107.043 55.4611 107.228 55.4597 107.624C55.4591 107.788 55.4233 107.989 55.3522 108.229C54.9985 109.239 54.61 110.194 54.1866 111.094C53.7865 111.992 53.4102 112.783 53.0577 113.466C52.6347 114.273 52.2351 115.019 51.8592 115.705C51.366 116.564 50.8147 117.37 50.2052 118.122C49.5958 118.851 48.94 119.503 48.2378 120.077C47.5357 120.627 46.7758 121.077 45.9578 121.428C45.1631 121.8 44.3104 122.025 43.4001 122.103C42.7232 122.161 41.9884 122.108 41.1957 121.943C40.4029 121.778 39.6575 121.41 38.9596 120.84C38.285 120.268 37.7163 119.454 37.2536 118.397C36.7909 117.317 36.5627 115.901 36.5692 114.15C36.5744 112.75 36.8602 111.197 37.4266 109.491C37.9931 107.763 38.9096 106.039 40.176 104.32C40.9969 103.199 41.817 102.265 42.6364 101.518C43.4793 100.745 44.275 100.117 45.0235 99.6322C45.7954 99.1457 46.5084 98.7926 47.1626 98.573C47.8168 98.3534 48.389 98.2224 48.8792 98.1802C49.2058 98.1521 49.5324 98.194 49.8588 98.3059C50.185 98.3946 50.476 98.5678 50.7319 98.8258C50.9876 99.0838 51.1964 99.4392 51.358 99.892C51.5198 100.321 51.5996 100.851 51.5973 101.482C51.5947 102.182 51.4869 102.914 51.2742 103.679C51.0846 104.419 50.7785 105.157 50.356 105.894C50.0274 106.459 49.6639 106.933 49.2656 107.317C48.8908 107.7 48.5164 108.012 48.1422 108.254C47.7914 108.494 47.464 108.674 47.1601 108.794C46.8797 108.888 46.6577 108.942 46.4944 108.956C46.0042 108.998 45.76 108.821 45.7615 108.424C45.7624 108.167 45.8339 107.765 45.976 107.216C46.1181 106.667 46.1905 106.03 46.1932 105.307C46.1938 105.143 46.183 104.934 46.1609 104.68C46.1619 104.399 46.1163 104.135 46.024 103.886C45.9547 103.636 45.8389 103.424 45.6765 103.251C45.5138 103.055 45.2923 102.969 45.0123 102.993C44.6857 103.021 44.3234 103.216 43.9252 103.577C43.5506 103.913 43.187 104.422 42.8344 105.106C42.294 106.109 41.9284 107.144 41.7378 108.21C41.5704 109.275 41.4851 110.227 41.482 111.068C41.4793 111.791 41.5464 112.579 41.6833 113.43C41.8436 114.28 42.0856 115.076 42.4095 115.818C42.7567 116.535 43.2096 117.126 43.768 117.591C44.3264 118.033 45.0141 118.219 45.8311 118.149C46.8815 118.058 47.8164 117.639 48.6358 116.892C49.4787 116.12 50.2288 115.215 50.886 114.178C51.5667 113.116 52.1657 112.027 52.6832 110.909C53.2007 109.791 53.6477 108.83 54.0241 108.028C54.3064 107.42 54.6225 107.101 54.9726 107.071L54.972 107.071Z" fill="black"/>
<path d="M71.4631 105.651C71.6032 105.639 71.7196 105.676 71.8125 105.761C71.9289 105.845 71.9867 105.98 71.986 106.167C71.9853 106.353 71.9498 106.531 71.8793 106.701C71.5256 107.711 71.1371 108.666 70.7136 109.566C70.3136 110.464 69.9373 111.266 69.5846 111.974C69.1617 112.78 68.7504 113.539 68.3511 114.25C67.8581 115.062 67.3068 115.845 66.6973 116.597C66.1112 117.324 65.4671 117.987 64.7649 118.584C64.0627 119.157 63.3024 119.631 62.4844 120.005C61.6663 120.379 60.8022 120.605 59.8918 120.683C59.2149 120.741 58.4684 120.689 57.6523 120.526C56.8595 120.361 56.1141 119.993 55.4162 119.423C54.7417 118.851 54.1847 118.036 53.7453 116.977C53.2825 115.92 53.0543 114.528 53.0607 112.801C53.0636 112.007 53.1484 111.195 53.3149 110.364C53.4581 109.535 53.671 108.735 53.9539 107.964C54.2134 107.195 54.5078 106.469 54.837 105.787C55.1895 105.104 55.5418 104.502 55.8939 103.981C56.5039 103.089 57.1486 102.252 57.8282 101.47C58.5079 100.665 59.1872 99.9644 59.8661 99.3693C60.5684 98.7488 61.2469 98.2587 61.9016 97.899C62.5563 97.5393 63.1638 97.3354 63.7241 97.2871C64.6111 97.2108 65.38 97.483 66.0311 98.1036C66.7055 98.7223 67.0403 99.6618 67.0356 100.922C67.0316 102.019 66.7473 103.187 66.1827 104.426C65.6182 105.641 64.9136 106.845 64.0692 108.038C63.2247 109.231 62.3221 110.347 61.3615 111.386C60.4009 112.426 59.5227 113.295 58.7267 113.993C59.143 115.007 59.677 115.731 60.3287 116.165C60.9805 116.599 61.6449 116.787 62.3218 116.729C63.3722 116.638 64.307 116.22 65.1265 115.472C65.9693 114.723 66.7194 113.83 67.3766 112.794C68.0571 111.755 68.6445 110.678 69.1387 109.562C69.6562 108.444 70.1149 107.459 70.5147 106.608C70.6559 106.316 70.7967 106.094 70.9373 105.942C71.078 105.766 71.2533 105.67 71.4632 105.652L71.4631 105.651ZM57.8367 108.504C57.8316 109.882 57.9322 111.086 58.1382 112.119C58.6068 111.612 59.0756 111.046 59.5446 110.422C60.037 109.773 60.4711 109.118 60.8469 108.455C61.246 107.791 61.5636 107.122 61.7995 106.448C62.0587 105.773 62.1893 105.131 62.1916 104.524C62.1951 103.591 61.9993 102.884 61.6044 102.405C61.2095 101.925 60.8137 101.703 60.4169 101.737C60.1835 101.757 59.9146 101.932 59.61 102.261C59.3288 102.566 59.0471 103.01 58.7649 103.594C58.5061 104.177 58.2817 104.884 58.0919 105.717C57.9255 106.525 57.8404 107.454 57.8365 108.504L57.8367 108.504Z" fill="black"/>
<path d="M100.874 103.119C101.201 103.091 101.363 103.276 101.362 103.672C101.361 103.836 101.325 104.037 101.254 104.277C100.9 105.287 100.512 106.242 100.088 107.142C99.6882 108.04 99.3121 108.831 98.9595 109.514C98.5365 110.321 98.137 111.067 97.7611 111.753C97.2678 112.612 96.7165 113.418 96.107 114.17C95.4976 114.899 94.8418 115.551 94.1396 116.125C93.4376 116.675 92.6776 117.126 91.8595 117.476C91.0648 117.848 90.2123 118.073 89.302 118.151C88.625 118.209 87.8903 118.156 87.0975 117.991C86.3048 117.826 85.5594 117.458 84.8615 116.888C84.1869 116.316 83.6182 115.502 83.1554 114.445C82.6928 113.365 82.4646 111.949 82.4711 110.199C82.4763 108.798 82.7621 107.245 83.3285 105.54C83.8949 103.811 84.8114 102.087 86.0779 100.368C86.8987 99.247 87.7188 98.313 88.5383 97.5657C89.3812 96.7932 90.1769 96.1647 90.9254 95.6802C91.6972 95.1938 92.4103 94.8407 93.0644 94.6211C93.7186 94.4014 94.2908 94.2705 94.781 94.2283C95.1077 94.2002 95.4342 94.2421 95.7607 94.354C96.0868 94.4426 96.3779 94.6159 96.6338 94.8739C96.8895 95.1319 97.0982 95.4873 97.2598 95.9401C97.4217 96.3695 97.5015 96.8993 97.4991 97.5296C97.4965 98.2298 97.3888 98.9625 97.176 99.7275C96.9864 100.467 96.6804 101.205 96.2578 101.942C95.9292 102.507 95.5657 102.981 95.1674 103.366C94.7927 103.748 94.4183 104.06 94.0441 104.302C93.6932 104.542 93.3657 104.722 93.0618 104.842C92.7814 104.936 92.5595 104.99 92.3962 105.004C91.906 105.046 91.6617 104.869 91.6631 104.472C91.6641 104.215 91.7356 103.813 91.8777 103.264C92.0198 102.715 92.0922 102.079 92.0948 101.355C92.0954 101.192 92.0848 100.982 92.0627 100.728C92.0638 100.448 92.0182 100.183 91.9259 99.9344C91.857 99.6836 91.741 99.4719 91.5782 99.2993C91.4155 99.1033 91.1942 99.0173 90.9142 99.0414C90.5875 99.0695 90.2251 99.2641 89.8269 99.625C89.4523 99.9606 89.0888 100.47 88.7363 101.154C88.1958 102.157 87.8302 103.192 87.6396 104.259C87.4722 105.323 87.3869 106.275 87.3838 107.116C87.3811 107.839 87.4482 108.627 87.5851 109.478C87.7454 110.328 87.9875 111.124 88.3113 111.866C88.6586 112.583 89.1114 113.174 89.6698 113.639C90.2282 114.081 90.9158 114.267 91.7328 114.197C92.7832 114.106 93.7182 113.688 94.5377 112.94C95.3806 112.168 96.1305 111.263 96.7877 110.227C97.4684 109.165 98.0676 108.075 98.5851 106.957C99.1026 105.839 99.5494 104.879 99.9257 104.076C100.208 103.468 100.524 103.15 100.874 103.119L100.874 103.119Z" fill="black"/>
<path d="M107.521 113.327C108.082 113.279 108.572 113.05 108.994 112.641C109.415 112.231 109.767 111.711 110.05 111.08C110.356 110.447 110.603 109.725 110.793 108.916C110.983 108.082 111.126 107.23 111.222 106.358C110.547 105.95 109.884 105.4 109.233 104.71C108.606 104.017 108.037 103.156 107.528 102.126C107.227 101.522 107.007 100.899 106.87 100.258C106.732 99.5928 106.665 98.957 106.667 98.3501C106.67 97.5798 106.777 96.8471 106.99 96.1522C107.202 95.4572 107.508 94.8475 107.907 94.3231C108.329 93.7968 108.844 93.3674 109.452 93.0351C110.06 92.6794 110.76 92.4674 111.554 92.3991C112.558 92.3127 113.374 92.4875 114.002 92.9234C114.654 93.334 115.165 93.8967 115.536 94.6115C115.907 95.303 116.161 96.0745 116.297 96.9262C116.458 97.7757 116.536 98.574 116.534 99.3209C116.53 100.301 116.456 101.311 116.312 102.35C116.192 103.387 115.99 104.443 115.706 105.518C116.569 105.373 117.341 105.074 118.019 104.618C118.697 104.14 119.272 103.39 119.742 102.37C120.025 101.762 120.318 101.445 120.621 101.419C120.784 101.405 120.924 101.44 121.041 101.523C121.18 101.605 121.25 101.75 121.249 101.96C121.249 102.124 121.213 102.29 121.143 102.459C120.671 103.83 119.885 104.948 118.785 105.813C117.708 106.675 116.505 107.164 115.175 107.278C114.773 108.456 114.279 109.584 113.692 110.661C113.128 111.713 112.459 112.657 111.686 113.494C110.913 114.331 110.035 115.013 109.053 115.541C108.071 116.069 106.985 116.384 105.795 116.486C105.165 116.54 104.453 116.508 103.66 116.39C102.867 116.271 102.122 115.951 101.423 115.427C100.726 114.881 100.145 114.091 99.6824 113.057C99.1963 112.002 98.9565 110.576 98.9632 108.779C98.9686 107.308 99.2544 105.732 99.8207 104.05C100.364 102.369 101.28 100.669 102.57 98.9477C103.062 98.2986 103.507 97.8286 103.905 97.5377C104.326 97.2448 104.665 97.0873 104.922 97.0652C105.435 97.021 105.691 97.314 105.689 97.9442C105.688 98.2243 105.593 98.5825 105.404 99.0187C105.216 99.455 105.015 100.009 104.803 100.681C104.591 101.352 104.389 102.151 104.199 103.078C104.009 103.981 103.912 105.039 103.907 106.253C103.899 108.587 104.218 110.38 104.867 111.631C105.539 112.856 106.424 113.422 107.521 113.327L107.521 113.327ZM111.446 102.699C111.455 100.318 111.239 98.6332 110.8 97.6443C110.36 96.6321 109.871 96.2541 109.334 96.5104C109.1 96.6239 108.959 96.846 108.911 97.1768C108.887 97.5056 108.874 97.8217 108.873 98.1251C108.871 98.6387 108.939 99.1695 109.077 99.7177C109.215 100.266 109.388 100.811 109.596 101.353C109.827 101.893 110.094 102.407 110.395 102.894C110.72 103.356 111.057 103.783 111.406 104.173C111.43 103.914 111.442 103.668 111.443 103.434C111.444 103.201 111.445 102.956 111.446 102.699L111.446 102.699Z" fill="black"/>
<path d="M143.656 100.521C142.901 102.663 142.217 104.554 141.604 106.193C141.015 107.807 140.415 109.177 139.804 110.303C139.193 111.406 138.525 112.257 137.799 112.856C137.097 113.453 136.268 113.793 135.311 113.875C134.494 113.945 133.806 113.771 133.247 113.353C132.689 112.911 132.248 112.342 131.924 111.647C131.6 110.928 131.369 110.131 131.232 109.256C131.096 108.381 131.029 107.535 131.032 106.718C131.034 106.111 131.036 105.528 131.038 104.967C131.04 104.407 131.066 103.88 131.114 103.386C130.593 105.507 130.061 107.292 129.519 108.738C129.001 110.183 128.471 111.349 127.931 112.235C127.391 113.122 126.817 113.778 126.209 114.203C125.624 114.604 125.005 114.832 124.351 114.888C123.861 114.931 123.36 114.845 122.847 114.633C122.358 114.442 121.905 114.014 121.487 113.35C121.069 112.686 120.723 111.735 120.447 110.499C120.195 109.237 120.073 107.568 120.081 105.49C120.083 104.977 120.097 104.357 120.123 103.632C120.148 102.883 120.198 102.108 120.271 101.309C120.344 100.486 120.429 99.6851 120.525 98.9067C120.645 98.103 120.787 97.379 120.953 96.7347C121.025 96.4486 121.119 96.1021 121.237 95.6952C121.356 95.2884 121.473 95.0215 121.59 94.8948C121.848 94.6393 122.059 94.4111 122.223 94.2103C122.411 94.0075 122.563 93.9011 122.679 93.8911C122.843 93.877 122.971 93.9359 123.064 94.068C123.18 94.1746 123.296 94.223 123.413 94.2129C123.483 94.2069 123.612 94.1375 123.799 94.0047C124.009 93.8699 124.232 93.7224 124.466 93.5623C124.7 93.4021 124.922 93.2547 125.132 93.1198C125.366 92.983 125.53 92.9106 125.623 92.9026C125.903 92.8785 126.042 93.1232 126.04 93.6367C126.04 93.7768 126.028 93.9412 126.004 94.1299C125.98 94.3186 125.944 94.5433 125.896 94.8042C125.681 96.3161 125.524 97.7764 125.425 99.185C125.35 100.568 125.309 102.053 125.303 103.641C125.3 104.528 125.309 105.332 125.329 106.054C125.349 106.775 125.393 107.402 125.462 107.932C125.553 108.438 125.692 108.834 125.877 109.122C126.063 109.386 126.32 109.504 126.646 109.475C127.113 109.435 127.546 109.095 127.945 108.454C128.344 107.789 128.709 106.953 129.039 105.944C129.393 104.934 129.724 103.82 130.032 102.604C130.34 101.387 130.636 100.207 130.92 99.0621C131.205 97.8942 131.489 96.8197 131.772 95.8385C132.079 94.8554 132.385 94.1057 132.69 93.5894C132.996 93.0964 133.394 92.6771 133.885 92.3315C134.4 91.9839 134.879 91.7909 135.322 91.7527C135.836 91.7086 136.197 91.8758 136.406 92.2546C136.638 92.6079 136.752 93.3332 136.747 94.4303C136.745 95.2239 136.718 95.9729 136.669 96.6771C136.619 97.3814 136.57 98.1091 136.521 98.8601C136.471 99.611 136.422 100.42 136.372 101.288C136.322 102.132 136.295 103.08 136.291 104.13C136.288 105.087 136.32 105.866 136.387 106.467C136.478 107.043 136.593 107.488 136.732 107.802C136.871 108.117 137.022 108.326 137.185 108.428C137.348 108.531 137.511 108.575 137.675 108.561C138.071 108.527 138.446 108.32 138.797 107.94C139.148 107.559 139.5 107.027 139.853 106.344C140.229 105.635 140.605 104.786 140.982 103.796C141.383 102.805 141.819 101.683 142.29 100.429C142.408 100.139 142.549 99.9164 142.713 99.7623C142.877 99.5848 143.052 99.488 143.239 99.472C143.379 99.4599 143.495 99.5082 143.588 99.6169C143.704 99.7003 143.762 99.8353 143.761 100.022C143.761 100.185 143.725 100.352 143.654 100.521L143.656 100.521Z" fill="black"/>
<path d="M159.376 99.1677C158.833 101.035 158.278 102.762 157.712 104.351C157.146 105.94 156.546 107.322 155.912 108.496C155.277 109.671 154.574 110.607 153.801 111.303C153.052 111.998 152.199 112.386 151.242 112.468C150.074 112.569 149.131 112.067 148.412 110.962C147.716 109.832 147.372 108.298 147.379 106.361C147.382 105.52 147.42 104.724 147.493 103.971C147.589 103.216 147.685 102.484 147.782 101.776C147.901 101.065 147.997 100.38 148.07 99.7208C148.165 99.0592 148.214 98.4133 148.217 97.7831C148.219 97.1061 148.139 96.6697 147.976 96.4737C147.814 96.2777 147.604 96.1907 147.347 96.2128C147.3 96.2169 147.254 96.2326 147.207 96.26C147.16 96.264 147.067 96.2838 146.927 96.3192C146.81 96.3293 146.623 96.3687 146.366 96.4375C146.133 96.481 145.806 96.5441 145.385 96.6269C145.127 97.2092 144.915 97.7057 144.75 98.1166C144.585 98.5041 144.444 98.843 144.326 99.1331C144.208 99.4233 144.102 99.6774 144.008 99.8955C143.938 100.088 143.867 100.293 143.796 100.509C143.607 100.968 143.443 101.263 143.303 101.391C143.163 101.497 142.999 101.557 142.812 101.573C142.672 101.586 142.556 101.537 142.463 101.429C142.347 101.322 142.289 101.164 142.29 100.953C142.29 100.813 142.326 100.647 142.396 100.454C142.467 100.238 142.55 99.9744 142.645 99.6629C142.762 99.326 142.881 98.9075 142.999 98.4073C143.141 97.905 143.283 97.2861 143.426 96.5504C142.96 96.3806 142.565 95.9245 142.241 95.1823C141.894 94.4188 141.723 93.5119 141.727 92.4615C141.73 91.5978 141.885 90.7095 142.192 89.7964C142.475 88.8853 142.828 88.0498 143.251 87.2901C143.697 86.505 144.166 85.8579 144.658 85.3489C145.174 84.8378 145.63 84.5652 146.026 84.5311C146.54 84.4869 146.97 84.7648 147.318 85.3649C147.689 85.9397 147.874 86.6239 147.871 87.4175C147.869 87.8376 147.821 88.2735 147.726 88.725C147.631 89.1532 147.525 89.559 147.407 89.9426C147.312 90.3007 147.218 90.6355 147.123 90.947C147.029 91.2351 146.981 91.4609 146.981 91.6243C146.98 91.8343 147.061 91.9323 147.225 91.9183C147.342 91.9082 147.552 91.8318 147.856 91.689L149.574 90.771C150.206 90.46 150.743 90.2854 151.186 90.2472C151.933 90.1829 152.423 90.3742 152.654 90.8209C152.909 91.2657 153.035 91.9432 153.032 92.8535C153.03 93.2503 152.981 93.9546 152.884 94.9663C152.787 95.9547 152.678 97.0608 152.557 98.2846C152.459 99.4831 152.361 100.682 152.264 101.88C152.19 103.076 152.151 104.048 152.148 104.795C152.145 105.612 152.225 106.212 152.387 106.595C152.572 106.952 152.957 107.106 153.54 107.055C153.96 107.019 154.37 106.739 154.768 106.215C155.19 105.688 155.589 105.036 155.966 104.257C156.342 103.477 156.695 102.63 157.025 101.715C157.378 100.798 157.697 99.919 157.98 99.078C158.192 98.4763 158.497 98.1584 158.893 98.1243C159.267 98.0921 159.453 98.2861 159.451 98.7063C159.451 98.7764 159.439 98.8473 159.416 98.9193C159.416 98.9894 159.404 99.0721 159.381 99.1674L159.376 99.1677Z" fill="black"/>
<path d="M168.489 105.138L168.981 104.676C169.473 104.19 170.094 103.402 170.845 102.31C171.619 101.217 172.383 99.7045 173.137 97.7729C173.396 97.1672 173.724 96.8473 174.121 96.8132C174.447 96.7851 174.61 96.9577 174.608 97.3312C174.608 97.4712 174.572 97.6493 174.502 97.8654C173.959 99.4288 173.371 100.775 172.737 101.902C172.126 103.028 171.492 103.993 170.836 104.796C170.179 105.599 169.523 106.263 168.868 106.786C168.236 107.283 167.64 107.673 167.079 107.955C166.469 108.917 165.754 109.772 164.934 110.519C164.138 111.241 163.203 111.648 162.13 111.741C161.429 111.801 160.835 111.701 160.346 111.439C159.857 111.178 159.461 110.839 159.159 110.421C158.857 110.004 158.637 109.545 158.499 109.043C158.361 108.518 158.293 108.046 158.295 107.626C158.298 106.832 158.394 106.112 158.583 105.466C158.795 104.817 159.042 104.259 159.324 103.792C159.606 103.324 159.899 102.972 160.203 102.736C160.531 102.475 160.799 102.335 161.01 102.317C161.29 102.293 161.569 102.502 161.847 102.945C162.126 103.387 162.427 104.015 162.75 104.827C163.213 106.047 163.606 106.924 163.931 107.456C164.281 107.379 164.62 107.303 164.947 107.228C165.273 107.13 165.601 107.008 165.928 106.864C166.093 106.523 166.176 106.224 166.177 105.967C166.178 105.547 166.063 105.067 165.832 104.527C165.601 103.963 165.299 103.383 164.928 102.784C164.581 102.161 164.186 101.542 163.745 100.926C163.304 100.287 162.863 99.6954 162.422 99.15C162.004 98.5793 161.609 98.0649 161.237 97.6069C160.866 97.1255 160.576 96.7305 160.367 96.4218C160.201 96.9727 160.059 97.4516 159.941 97.8584C159.823 98.2419 159.705 98.5787 159.588 98.8689C159.422 99.3498 159.269 99.678 159.129 99.8534C159.012 100.004 158.848 100.088 158.638 100.106C158.265 100.138 158.079 99.9322 158.08 99.4887C158.081 99.3253 158.105 99.1716 158.152 99.0275C158.341 98.4045 158.495 97.8545 158.614 97.3777C158.756 96.8754 158.874 96.4569 158.968 96.1221C159.063 95.7173 159.146 95.3718 159.217 95.0856C158.822 94.6296 158.474 94.0996 158.173 93.4954C157.849 92.87 157.689 92.0554 157.692 91.0517C157.695 90.3281 157.838 89.5224 158.121 88.6346C158.382 87.7255 158.723 86.8794 159.146 86.0963C159.569 85.2899 160.027 84.6088 160.519 84.0531C161.034 83.4954 161.525 83.1964 161.992 83.1563C162.272 83.1321 162.517 83.2044 162.726 83.3731C162.959 83.5164 163.145 83.7221 163.284 83.9901C163.446 84.2561 163.562 84.5729 163.63 84.9403C163.722 85.2824 163.768 85.6286 163.766 85.9787C163.763 86.7723 163.62 87.683 163.336 88.7108C163.313 88.8062 163.277 88.9493 163.23 89.14C163.206 89.3054 163.194 89.4814 163.193 89.6682C163.191 90.3451 163.631 91.2523 164.513 92.3897C165.396 93.5272 166.499 94.7972 167.824 96.1999C168.452 96.8693 168.904 97.6004 169.181 98.3932C169.458 99.1627 169.595 100.073 169.591 101.123C169.59 101.45 169.553 101.815 169.482 102.218C169.411 102.597 169.328 102.919 169.233 103.184L168.489 105.138Z" fill="black"/>
<path d="M72.271 0.000987963L75.6088 77.3546L87.8313 74.0766L85.8781 28.8086C87.624 26.2339 90.237 24.5032 92.72 24.2848C96.2254 23.9767 98.1462 25.4063 98.3492 30.1112L100.104 70.7851L112.327 67.507L110.639 28.4015C110.281 20.0985 105.614 16.1433 97.8152 16.6158C93.2821 16.8905 88.462 18.4339 84.9883 22.8747L85.206 13.2182L84.6366 0.0276191L72.2714 0L72.271 0.000987963ZM126.142 0.323327L129.718 43.5517L139.754 41.6945L139.484 0.34032L126.142 0.326511V0.323327ZM40.6987 4.46654C32.8834 4.56018 20.0409 7.07484 21.1574 32.9508L22.469 63.3479C23.5812 89.1233 36.2189 88.6552 44.2378 86.4864C51.4356 84.5398 64.4528 78.158 63.4866 55.7642L62.3336 29.0424C61.3369 5.94192 48.221 4.37658 40.6987 4.46654ZM41.1137 14.0932C46.0896 13.8829 48.614 16.9193 49.0497 27.017L50.5955 62.843C51.0169 72.618 48.7739 76.0928 43.8404 77.2825C38.7618 78.5072 36.2608 76.0374 35.819 65.7981L34.1998 28.2705C33.7432 17.6931 35.9916 14.3084 41.1137 14.0932ZM135.023 48.738C130.374 49.7248 127.551 52.2875 127.761 57.1503C127.948 61.4919 130.996 62.9881 135.537 61.7607C140.319 60.468 143.072 57.4228 142.902 53.4921C142.716 49.204 139.818 47.7205 135.023 48.738Z" fill="black"/>
<path d="M8.75984 176.791H12.0145V161.151H14.511V158.799H12.0145V157.505C12.0145 155.937 12.7726 155.427 13.6353 155.427C14.0798 155.427 14.5111 155.48 14.864 155.571V153.245C14.2627 152.945 13.3084 152.801 12.6679 152.801C10.472 152.801 8.75984 153.598 8.75984 157.505V158.799H7.20438V161.15H8.75984V176.791Z" fill="black"/>
<path d="M30.053 176.987C32.1313 176.987 35.0069 176.059 35.0069 169.069V166.246C35.0069 159.164 32.2227 158.59 30.066 158.59C27.8309 158.59 25.0468 159.256 25.0468 166.246V169.069C25.0468 176.177 27.7526 176.987 30.053 176.987ZM30.0818 174.439C28.8401 174.439 28.3695 173.328 28.3695 169.957V165.528C28.3695 162.157 28.8399 161.007 30.0818 161.007C31.2713 161.007 31.6895 162.157 31.6895 165.528V169.957C31.6895 173.328 31.271 174.439 30.0818 174.439Z" fill="black"/>
<path d="M47.0851 176.791H50.392V161.974C50.6925 161.373 51.1502 161.007 51.673 161.007C52.1566 161.007 52.5489 161.412 52.5489 162.862V164.535H54.8493C55.0974 163.803 55.2936 162.692 55.2936 162.091C55.2936 159.765 54.4048 158.59 52.5095 158.59C51.5161 158.59 50.5098 159.269 49.7909 160.628L49.5036 158.799H47.0855L47.0851 176.791Z" fill="black"/>
<path d="M66.5352 176.791H69.8423V162.235C70.3259 161.477 70.9794 161.007 71.5676 161.007C72.6394 161.007 73.0969 161.542 73.0969 163.124V176.791H76.4039V162.732C76.4039 162.575 76.4039 162.418 76.3923 162.261C76.8892 161.49 77.5426 161.007 78.1439 161.007C79.2157 161.007 79.6732 161.543 79.6732 163.124V176.791H82.9802V163.006C82.9802 160.079 81.7776 158.59 79.6994 158.59C78.3923 158.59 77.059 159.073 76.0264 160.628C75.5295 159.269 74.5233 158.59 73.1247 158.59C71.7915 158.59 70.419 159.086 69.3863 160.732V160.719L69.0991 158.798H66.5372L66.5352 176.791Z" fill="black"/>
<path d="M98.0371 176.987C99.5533 176.987 100.808 176.268 101.514 175.249L101.749 176.791H104.207V163.32C104.207 160.131 103.174 158.59 99.5926 158.59C96.8477 158.59 94.9002 160.04 94.9002 162.718C94.9002 163.28 94.9784 163.816 95.1356 164.496H97.6583V163.712C97.6583 161.647 98.5471 161.007 99.4882 161.007C100.887 161.007 100.991 162.078 100.991 163.476V165.854C100.351 166.09 99.4228 166.469 98.7693 166.795C96.0244 168.154 94.5605 169.709 94.5605 172.662C94.5605 175.118 95.8152 176.987 98.0373 176.987H98.0371ZM99.5009 174.439C98.3114 174.439 97.8017 173.524 97.8017 172.152C97.8017 170.388 98.769 169.265 99.6971 168.69C100.194 168.376 100.651 168.206 100.991 168.063V173.694C100.625 174.112 100.05 174.439 99.5009 174.439Z" fill="black"/>
<path d="M117.16 172.309C117.16 176.216 118.873 177 120.716 177C121.644 177 122.703 176.752 123.461 175.824V173.995C123.016 174.269 122.533 174.439 121.892 174.439C121.121 174.439 120.467 174.165 120.467 172.597V161.151H123.343V158.799H120.467V154.134H118.115L117.448 158.799H115.762V161.151H117.16V172.309Z" fill="black"/>
<path d="M136.519 156.225C137.813 156.225 138.532 155.427 138.532 154.069C138.532 152.618 137.826 151.978 136.532 151.978C135.291 151.978 134.546 152.514 134.546 154.069C134.546 155.467 135.304 156.225 136.519 156.225ZM134.807 176.791H138.114V158.799H134.807V176.791Z" fill="black"/>
<path d="M155.251 176.987C157.329 176.987 160.204 176.059 160.204 169.069V166.246C160.204 159.164 157.42 158.59 155.264 158.59C153.028 158.59 150.244 159.256 150.244 166.246V169.069C150.244 176.177 152.95 176.987 155.251 176.987ZM155.279 174.439C154.038 174.439 153.567 173.328 153.567 169.957V165.528C153.567 162.157 154.037 161.007 155.279 161.007C156.469 161.007 156.887 162.157 156.887 165.528V169.957C156.887 173.328 156.468 174.439 155.279 174.439Z" fill="black"/>
<path d="M172.283 176.791H175.59V162.235C176.086 161.477 176.779 161.007 177.446 161.007C178.387 161.007 178.883 161.542 178.883 163.124V176.791H182.19V163.006C182.19 160.079 180.988 158.59 178.897 158.59C177.576 158.59 176.165 159.086 175.132 160.732V160.719L174.832 158.798H172.283L172.283 176.791Z" fill="black"/>
<path d="M194.059 173.028C194.059 175.994 195.994 176.987 198.412 176.987C201.353 176.987 203 175.314 203 172.78C203 170.676 201.562 168.938 200.804 167.984L198.164 164.887C197.497 164.051 197.066 163.398 197.066 162.562C197.066 161.804 197.419 161.007 198.569 161.007C199.902 161.007 200.138 162.183 200.177 164.548H202.464C202.608 163.986 202.791 163.15 202.791 162.326C202.791 159.844 201.118 158.59 198.517 158.59C196.164 158.59 194.099 159.896 194.099 162.692C194.099 164.783 195.262 166.403 196.517 167.984L198.935 170.833C199.641 171.695 200.059 172.283 200.059 173.054C200.059 173.786 199.628 174.439 198.635 174.439C197.197 174.439 196.713 173.629 196.713 171.016H194.387C194.243 171.447 194.059 172.244 194.059 173.028Z" fill="black"/>
</svg>

