<?xml version="1.0" standalone="no"?>
<!DOCTYPE svg PUBLIC "-//W3C//DTD SVG 20010904//EN"
 "http://www.w3.org/TR/2001/REC-SVG-20010904/DTD/svg10.dtd">
<svg version="1.0" xmlns="http://www.w3.org/2000/svg"
 width="700.000000pt" height="700.000000pt" viewBox="0 0 700.000000 700.000000"
 preserveAspectRatio="xMidYMid meet">
<metadata>
Created by potrace 1.11, written by Peter Selinger 2001-2013
</metadata>
<g transform="translate(0.000000,700.000000) scale(0.100000,-0.100000)"
fill="#000000" stroke="none">
<path d="M2714 5977 c4 -78 9 -205 12 -282 2 -77 6 -159 8 -183 4 -42 3 -43
-37 -60 -23 -9 -43 -16 -44 -15 -1 0 -79 -25 -172 -56 l-169 -57 -13 61 c-7
33 -24 90 -39 126 -86 214 -204 334 -395 404 -87 32 -350 51 -445 32 -14 -3
-43 -8 -64 -12 -112 -22 -208 -75 -296 -164 -180 -183 -245 -473 -217 -978 l6
-112 -27 -21 c-175 -133 -268 -239 -349 -395 -34 -68 -88 -209 -97 -256 -1 -8
-8 -39 -14 -69 -7 -30 -14 -73 -18 -95 -10 -68 -12 -346 -3 -420 5 -38 11 -92
14 -120 5 -41 35 -201 50 -265 54 -233 176 -567 303 -830 74 -152 169 -329
188 -351 8 -8 14 -19 14 -22 0 -4 36 -62 79 -129 l79 -122 -20 -31 c-12 -16
-63 -70 -113 -120 -130 -127 -263 -202 -408 -230 -69 -13 -199 -14 -262 -1
-51 11 -159 47 -173 58 -7 6 -15 8 -18 5 -7 -7 175 -191 219 -222 345 -243
770 -211 1252 94 l46 29 57 -25 c142 -63 352 -127 532 -162 30 -6 69 -13 85
-16 17 -3 45 -8 63 -10 18 -2 45 -6 60 -9 37 -7 87 -13 267 -32 229 -23 769
-23 1090 1 22 2 85 6 140 10 55 4 108 9 117 10 9 2 49 6 90 10 40 3 85 8 100
11 15 2 47 6 72 9 69 7 140 16 156 20 8 2 42 7 75 11 33 3 67 7 75 9 8 1 35 6
60 9 50 8 320 53 360 61 14 2 36 7 50 10 14 2 36 6 50 9 39 6 179 35 245 51
135 31 201 46 220 49 11 2 40 9 65 16 25 7 52 13 60 15 110 22 411 115 486
150 316 145 542 446 668 887 26 90 60 255 71 343 4 28 8 61 11 75 23 138 23
643 0 791 -3 13 -7 51 -11 84 -7 72 -13 117 -19 148 -2 12 -7 40 -11 62 -4 22
-13 74 -22 115 -8 41 -17 86 -19 99 -21 105 -106 385 -161 526 -33 84 -148
326 -175 370 -138 217 -212 305 -353 425 -209 176 -446 298 -743 380 -59 16
-118 31 -132 34 -14 2 -42 7 -62 11 l-38 7 -1 177 c-1 97 -1 181 0 187 1 8
-67 12 -244 12 l-246 0 6 -67 c3 -36 8 -95 11 -131 3 -36 7 -80 9 -97 l5 -33
-118 -1 c-178 -1 -330 -9 -447 -23 -16 -2 -61 -7 -100 -11 -38 -3 -81 -8 -95
-10 -14 -2 -45 -7 -70 -10 -25 -3 -52 -8 -60 -10 -8 -2 -35 -6 -60 -9 -25 -3
-92 -15 -150 -27 -58 -11 -114 -22 -125 -23 -11 -2 -82 -18 -158 -36 -76 -18
-140 -30 -142 -29 -2 2 -6 87 -10 189 -4 102 -9 208 -10 235 -2 28 -3 62 -4
77 l-1 27 -226 0 -226 0 6 -142z m-1045 -387 c100 -27 169 -169 184 -382 l4
-56 -161 -68 c-88 -37 -208 -89 -266 -116 l-105 -47 -5 57 c-3 31 -5 122 -4
202 1 171 20 268 64 329 38 51 68 71 133 86 57 13 94 12 156 -5z"/>
</g>
</svg>
